<svg width="560" height="470" viewBox="0 0 560 470" xmlns="http://www.w3.org/2000/svg" xmlns:xlink="http://www.w3.org/1999/xlink">
<defs><radialGradient id="bg1777579331217" cx="50%" cy="0%" r="120%"><stop offset="0%" stop-color="#2a2754"/><stop offset="55%" stop-color="#171530"/><stop offset="100%" stop-color="#0b0a1f"/></radialGradient><linearGradient id="hdr1777579331217" x1="0" y1="0" x2="1" y2="0"><stop offset="0%" stop-color="#ff6b6b"/><stop offset="33%" stop-color="#ffd700"/><stop offset="66%" stop-color="#4ecdc4"/><stop offset="100%" stop-color="#a855f7"/></linearGradient><linearGradient id="reelbg1777579331217" x1="0" y1="0" x2="0" y2="1"><stop offset="0%" stop-color="#0b0b1f"/><stop offset="100%" stop-color="#1a1a35"/></linearGradient><filter id="glow1777579331217" x="-30%" y="-30%" width="160%" height="160%"><feGaussianBlur stdDeviation="2.5" result="b"/><feMerge><feMergeNode in="b"/><feMergeNode in="SourceGraphic"/></feMerge></filter><clipPath id="cp1777579331217c0"><rect x="73" y="104" width="78" height="168"/></clipPath><clipPath id="cp1777579331217c1"><rect x="157" y="104" width="78" height="168"/></clipPath><clipPath id="cp1777579331217c2"><rect x="241" y="104" width="78" height="168"/></clipPath><clipPath id="cp1777579331217c3"><rect x="325" y="104" width="78" height="168"/></clipPath><clipPath id="cp1777579331217c4"><rect x="409" y="104" width="78" height="168"/></clipPath>
<linearGradient id="g_1777579331217_cpp" x1="0" y1="0" x2="0" y2="1">
  <stop offset="0%" stop-color="#00599C" stop-opacity="1"/>
  <stop offset="100%" stop-color="#004375" stop-opacity="1"/>
</linearGradient>
<symbol id="sym_1777579331217_cpp" viewBox="0 0 78 56">
  <rect x="3" y="3" width="72" height="50" rx="9" fill="url(#g_1777579331217_cpp)"/>
  <rect x="3" y="3" width="72" height="50" rx="9" fill="none" stroke="#9FD3F0" stroke-width="1.6" opacity="0.85"/>
  <rect x="6" y="6" width="66" height="10" rx="4" fill="#ffffff" opacity="0.08"/>
  
      <g transform="translate(39,22)">
        <path d="M0,-15 L13,-7.5 L13,7.5 L0,15 L-13,7.5 L-13,-7.5 Z"
              fill="#004482" stroke="#9FD3F0" stroke-width="1.2"/>
        <text x="0" y="4" text-anchor="middle" font-family="'Segoe UI',sans-serif"
              font-size="11" font-weight="900" fill="#ffffff" letter-spacing="-0.5">C++</text>
      </g>
  <text x="39" y="49" text-anchor="middle" font-family="'Segoe UI','Helvetica Neue',sans-serif"
        font-size="9" font-weight="700" fill="#ffffff" letter-spacing="0.6" opacity="0.95">C++</text>
</symbol>
<linearGradient id="g_1777579331217_glsl" x1="0" y1="0" x2="0" y2="1">
  <stop offset="0%" stop-color="#5586A4" stop-opacity="1"/>
  <stop offset="100%" stop-color="#40657b" stop-opacity="1"/>
</linearGradient>
<symbol id="sym_1777579331217_glsl" viewBox="0 0 78 56">
  <rect x="3" y="3" width="72" height="50" rx="9" fill="url(#g_1777579331217_glsl)"/>
  <rect x="3" y="3" width="72" height="50" rx="9" fill="none" stroke="#F5B642" stroke-width="1.6" opacity="0.85"/>
  <rect x="6" y="6" width="66" height="10" rx="4" fill="#ffffff" opacity="0.08"/>
  
      <g transform="translate(39,22)">
        <polygon points="0,-15 13,-7.5 13,7.5 0,15 -13,7.5 -13,-7.5"
                 fill="#3a6178" stroke="#F5B642" stroke-width="1.5"/>
        <polygon points="0,-9 8,-4.5 8,4.5 0,9 -8,4.5 -8,-4.5"
                 fill="none" stroke="#F5B642" stroke-width="1" opacity="0.6"/>
        <text x="0" y="3.5" text-anchor="middle" font-family="'Segoe UI',sans-serif"
              font-size="9" font-weight="900" fill="#ffffff">GL</text>
      </g>
  <text x="39" y="49" text-anchor="middle" font-family="'Segoe UI','Helvetica Neue',sans-serif"
        font-size="9" font-weight="700" fill="#ffffff" letter-spacing="0.6" opacity="0.95">GLSL</text>
</symbol>
<linearGradient id="g_1777579331217_react" x1="0" y1="0" x2="0" y2="1">
  <stop offset="0%" stop-color="#20232A" stop-opacity="1"/>
  <stop offset="100%" stop-color="#181a20" stop-opacity="1"/>
</linearGradient>
<symbol id="sym_1777579331217_react" viewBox="0 0 78 56">
  <rect x="3" y="3" width="72" height="50" rx="9" fill="url(#g_1777579331217_react)"/>
  <rect x="3" y="3" width="72" height="50" rx="9" fill="none" stroke="#61DAFB" stroke-width="1.6" opacity="0.85"/>
  <rect x="6" y="6" width="66" height="10" rx="4" fill="#ffffff" opacity="0.08"/>
  
      <g transform="translate(39,22)">
        <ellipse cx="0" cy="0" rx="14" ry="5" fill="none" stroke="#61DAFB" stroke-width="1.4"/>
        <ellipse cx="0" cy="0" rx="14" ry="5" fill="none" stroke="#61DAFB" stroke-width="1.4" transform="rotate(60)"/>
        <ellipse cx="0" cy="0" rx="14" ry="5" fill="none" stroke="#61DAFB" stroke-width="1.4" transform="rotate(120)"/>
        <circle cx="0" cy="0" r="2.4" fill="#61DAFB"/>
      </g>
  <text x="39" y="49" text-anchor="middle" font-family="'Segoe UI','Helvetica Neue',sans-serif"
        font-size="9" font-weight="700" fill="#61DAFB" letter-spacing="0.6" opacity="0.95">React</text>
</symbol>
<linearGradient id="g_1777579331217_javascript" x1="0" y1="0" x2="0" y2="1">
  <stop offset="0%" stop-color="#F7DF1E" stop-opacity="1"/>
  <stop offset="100%" stop-color="#b9a717" stop-opacity="1"/>
</linearGradient>
<symbol id="sym_1777579331217_javascript" viewBox="0 0 78 56">
  <rect x="3" y="3" width="72" height="50" rx="9" fill="url(#g_1777579331217_javascript)"/>
  <rect x="3" y="3" width="72" height="50" rx="9" fill="none" stroke="#000000" stroke-width="1.6" opacity="0.85"/>
  <rect x="6" y="6" width="66" height="10" rx="4" fill="#ffffff" opacity="0.08"/>
  
      <g transform="translate(39,22)">
        <rect x="-15" y="-15" width="30" height="30" rx="3" fill="#F7DF1E" stroke="#1a1a1a" stroke-width="1"/>
        <text x="11" y="11" text-anchor="end" font-family="'Segoe UI',sans-serif"
              font-size="13" font-weight="900" fill="#1a1a1a" letter-spacing="-0.3">JS</text>
      </g>
  <text x="39" y="49" text-anchor="middle" font-family="'Segoe UI','Helvetica Neue',sans-serif"
        font-size="9" font-weight="700" fill="#1a1a1a" letter-spacing="0.6" opacity="0.95">JS</text>
</symbol>
<linearGradient id="g_1777579331217_python" x1="0" y1="0" x2="0" y2="1">
  <stop offset="0%" stop-color="#3776AB" stop-opacity="1"/>
  <stop offset="100%" stop-color="#295980" stop-opacity="1"/>
</linearGradient>
<symbol id="sym_1777579331217_python" viewBox="0 0 78 56">
  <rect x="3" y="3" width="72" height="50" rx="9" fill="url(#g_1777579331217_python)"/>
  <rect x="3" y="3" width="72" height="50" rx="9" fill="none" stroke="#FFD43B" stroke-width="1.6" opacity="0.85"/>
  <rect x="6" y="6" width="66" height="10" rx="4" fill="#ffffff" opacity="0.08"/>
  
      <g transform="translate(39,22)">
        <path d="M-2,-14 Q-9,-14 -9,-7 V-3 H1 V-1 H-11 Q-15,-1 -15,5 V9 Q-15,14 -10,14 H-6 V8 Q-6,4 -1,4 H7 Q12,4 12,-1 V-7 Q12,-14 5,-14 Z"
              fill="#3776AB" stroke="#ffffff" stroke-width="0.6"/>
        <circle cx="-5" cy="-10" r="1.4" fill="#ffffff"/>
        <path d="M2,14 Q9,14 9,7 V3 H-1 V1 H11 Q15,1 15,-5 V-9 Q15,-14 10,-14 H6 V-8 Q6,-4 1,-4 H-7 Q-12,-4 -12,1 V7 Q-12,14 -5,14 Z"
              fill="#FFD43B" stroke="#ffffff" stroke-width="0.6"/>
        <circle cx="5" cy="10" r="1.4" fill="#ffffff"/>
      </g>
  <text x="39" y="49" text-anchor="middle" font-family="'Segoe UI','Helvetica Neue',sans-serif"
        font-size="9" font-weight="700" fill="#ffffff" letter-spacing="0.6" opacity="0.95">Py</text>
</symbol>
<linearGradient id="g_1777579331217_wild" x1="0" y1="0" x2="0" y2="1">
  <stop offset="0%" stop-color="#fde047" stop-opacity="1"/>
  <stop offset="100%" stop-color="#bea835" stop-opacity="1"/>
</linearGradient>
<symbol id="sym_1777579331217_wild" viewBox="0 0 78 56">
  <rect x="3" y="3" width="72" height="50" rx="9" fill="url(#g_1777579331217_wild)"/>
  <rect x="3" y="3" width="72" height="50" rx="9" fill="none" stroke="#a16207" stroke-width="1.6" opacity="0.85"/>
  <rect x="6" y="6" width="66" height="10" rx="4" fill="#ffffff" opacity="0.08"/>
  
    <g transform="translate(39,22)">
      <polygon points="0,-13 3.5,-4 13,-4 5.5,1.5 8.5,11 0,5.5 -8.5,11 -5.5,1.5 -13,-4 -3.5,-4"
               fill="#1a1a2e" stroke="#a16207" stroke-width="1"/>
    </g>
  <text x="39" y="49" text-anchor="middle" font-family="'Segoe UI','Helvetica Neue',sans-serif"
        font-size="9" font-weight="700" fill="#1a1a2e" letter-spacing="0.6" opacity="0.95">WILD</text>
</symbol>
<linearGradient id="g_1777579331217_scatter" x1="0" y1="0" x2="0" y2="1">
  <stop offset="0%" stop-color="#a855f7" stop-opacity="1"/>
  <stop offset="100%" stop-color="#7e40b9" stop-opacity="1"/>
</linearGradient>
<symbol id="sym_1777579331217_scatter" viewBox="0 0 78 56">
  <rect x="3" y="3" width="72" height="50" rx="9" fill="url(#g_1777579331217_scatter)"/>
  <rect x="3" y="3" width="72" height="50" rx="9" fill="none" stroke="#f0abfc" stroke-width="1.6" opacity="0.85"/>
  <rect x="6" y="6" width="66" height="10" rx="4" fill="#ffffff" opacity="0.08"/>
  
    <g transform="translate(39,22)">
      <path d="M0,-13 L3.5,-3.5 L13,0 L3.5,3.5 L0,13 L-3.5,3.5 L-13,0 L-3.5,-3.5 Z"
            fill="#ffffff" stroke="#f0abfc" stroke-width="1"/>
    </g>
  <text x="39" y="49" text-anchor="middle" font-family="'Segoe UI','Helvetica Neue',sans-serif"
        font-size="9" font-weight="700" fill="#ffffff" letter-spacing="0.6" opacity="0.95">BONUS</text>
</symbol></defs>
<style>@keyframes bl1777579331217{0%,15%{fill:#ffd700;opacity:.9}25%,100%{fill:#444;opacity:.2}}@keyframes rs1777579331217c0{0%{transform:translateY(-784px)}85%{transform:translateY(10px)}94%{transform:translateY(-3px)}100%{transform:translateY(0)}}@keyframes rs1777579331217c1{0%{transform:translateY(-784px)}85%{transform:translateY(10px)}94%{transform:translateY(-3px)}100%{transform:translateY(0)}}@keyframes rs1777579331217c2{0%{transform:translateY(-784px)}85%{transform:translateY(10px)}94%{transform:translateY(-3px)}100%{transform:translateY(0)}}@keyframes rs1777579331217c3{0%{transform:translateY(-784px)}85%{transform:translateY(10px)}94%{transform:translateY(-3px)}100%{transform:translateY(0)}}@keyframes rs1777579331217c4{0%{transform:translateY(-784px)}85%{transform:translateY(10px)}94%{transform:translateY(-3px)}100%{transform:translateY(0)}}@keyframes wp1777579331217{0%,100%{opacity:0}50%{opacity:.55}}@keyframes pf1777579331217{from{opacity:0;stroke-width:1}to{opacity:.9;stroke-width:3}}@keyframes ov1777579331217{from{opacity:0}to{opacity:.92}}@keyframes ot1777579331217{from{opacity:0;transform:scale(.5)}to{opacity:1;transform:scale(1)}}@keyframes sg1777579331217{0%,100%{opacity:0;transform:scale(1)}50%{opacity:.6;transform:scale(1.08)}}@keyframes fi1777579331217{from{opacity:0}to{opacity:1}}@keyframes jb1777579331217{0%,100%{stroke:#ffd700}50%{stroke:#e94560}}@keyframes nm1777579331217{0%,100%{opacity:0}30%{opacity:.4}60%{opacity:0}}@keyframes cf1777579331217{0%{transform:translateY(-20px);opacity:1}100%{transform:translateY(180px);opacity:0}}</style>
<rect width="560" height="470" rx="20" fill="url(#bg1777579331217)"/>
<rect x="4" y="4" width="552" height="462" rx="18" fill="none" stroke="#3a3666" stroke-width="2"/>
<circle cx="25" cy="8" r="3.5" fill="#444" opacity=".25" style="animation:bl1777579331217 1.8s 0s infinite"/><circle cx="25" cy="462" r="3.5" fill="#444" opacity=".25" style="animation:bl1777579331217 1.8s 0.05s infinite"/><circle cx="76" cy="8" r="3.5" fill="#444" opacity=".25" style="animation:bl1777579331217 1.8s 0.1s infinite"/><circle cx="76" cy="462" r="3.5" fill="#444" opacity=".25" style="animation:bl1777579331217 1.8s 0.15000000000000002s infinite"/><circle cx="127" cy="8" r="3.5" fill="#444" opacity=".25" style="animation:bl1777579331217 1.8s 0.2s infinite"/><circle cx="127" cy="462" r="3.5" fill="#444" opacity=".25" style="animation:bl1777579331217 1.8s 0.25s infinite"/><circle cx="178" cy="8" r="3.5" fill="#444" opacity=".25" style="animation:bl1777579331217 1.8s 0.30000000000000004s infinite"/><circle cx="178" cy="462" r="3.5" fill="#444" opacity=".25" style="animation:bl1777579331217 1.8s 0.35000000000000003s infinite"/><circle cx="229" cy="8" r="3.5" fill="#444" opacity=".25" style="animation:bl1777579331217 1.8s 0.4s infinite"/><circle cx="229" cy="462" r="3.5" fill="#444" opacity=".25" style="animation:bl1777579331217 1.8s 0.45s infinite"/><circle cx="280" cy="8" r="3.5" fill="#444" opacity=".25" style="animation:bl1777579331217 1.8s 0.5s infinite"/><circle cx="280" cy="462" r="3.5" fill="#444" opacity=".25" style="animation:bl1777579331217 1.8s 0.55s infinite"/><circle cx="331" cy="8" r="3.5" fill="#444" opacity=".25" style="animation:bl1777579331217 1.8s 0.6000000000000001s infinite"/><circle cx="331" cy="462" r="3.5" fill="#444" opacity=".25" style="animation:bl1777579331217 1.8s 0.65s infinite"/><circle cx="382" cy="8" r="3.5" fill="#444" opacity=".25" style="animation:bl1777579331217 1.8s 0.7000000000000001s infinite"/><circle cx="382" cy="462" r="3.5" fill="#444" opacity=".25" style="animation:bl1777579331217 1.8s 0.75s infinite"/><circle cx="433" cy="8" r="3.5" fill="#444" opacity=".25" style="animation:bl1777579331217 1.8s 0.8s infinite"/><circle cx="433" cy="462" r="3.5" fill="#444" opacity=".25" style="animation:bl1777579331217 1.8s 0.8500000000000001s infinite"/><circle cx="484" cy="8" r="3.5" fill="#444" opacity=".25" style="animation:bl1777579331217 1.8s 0.9s infinite"/><circle cx="484" cy="462" r="3.5" fill="#444" opacity=".25" style="animation:bl1777579331217 1.8s 0.9500000000000001s infinite"/><circle cx="535" cy="8" r="3.5" fill="#444" opacity=".25" style="animation:bl1777579331217 1.8s 1s infinite"/><circle cx="535" cy="462" r="3.5" fill="#444" opacity=".25" style="animation:bl1777579331217 1.8s 1.05s infinite"/><circle cx="8" cy="50" r="3.5" fill="#444" opacity=".25" style="animation:bl1777579331217 1.8s 1.1s infinite"/><circle cx="552" cy="50" r="3.5" fill="#444" opacity=".25" style="animation:bl1777579331217 1.8s 1.1500000000000001s infinite"/><circle cx="8" cy="110" r="3.5" fill="#444" opacity=".25" style="animation:bl1777579331217 1.8s 1.2000000000000002s infinite"/><circle cx="552" cy="110" r="3.5" fill="#444" opacity=".25" style="animation:bl1777579331217 1.8s 1.25s infinite"/><circle cx="8" cy="170" r="3.5" fill="#444" opacity=".25" style="animation:bl1777579331217 1.8s 1.3s infinite"/><circle cx="552" cy="170" r="3.5" fill="#444" opacity=".25" style="animation:bl1777579331217 1.8s 1.35s infinite"/><circle cx="8" cy="230" r="3.5" fill="#444" opacity=".25" style="animation:bl1777579331217 1.8s 1.4000000000000001s infinite"/><circle cx="552" cy="230" r="3.5" fill="#444" opacity=".25" style="animation:bl1777579331217 1.8s 1.4500000000000002s infinite"/><circle cx="8" cy="290" r="3.5" fill="#444" opacity=".25" style="animation:bl1777579331217 1.8s 1.5s infinite"/><circle cx="552" cy="290" r="3.5" fill="#444" opacity=".25" style="animation:bl1777579331217 1.8s 1.55s infinite"/><circle cx="8" cy="350" r="3.5" fill="#444" opacity=".25" style="animation:bl1777579331217 1.8s 1.6s infinite"/><circle cx="552" cy="350" r="3.5" fill="#444" opacity=".25" style="animation:bl1777579331217 1.8s 1.6500000000000001s infinite"/><circle cx="8" cy="410" r="3.5" fill="#444" opacity=".25" style="animation:bl1777579331217 1.8s 1.7000000000000002s infinite"/><circle cx="552" cy="410" r="3.5" fill="#444" opacity=".25" style="animation:bl1777579331217 1.8s 1.75s infinite"/>

<rect x="14" y="14" width="532" height="86" rx="14" fill="#13122d" opacity="0.85"/>
<text x="280" y="40" text-anchor="middle" font-family="'Segoe UI','Helvetica Neue',sans-serif" font-size="22" font-weight="800" fill="url(#hdr1777579331217)" filter="url(#glow1777579331217)">DEV STACK SLOT MACHINE</text>
<text x="280" y="58" text-anchor="middle" font-family="'Segoe UI',sans-serif" font-size="10" fill="#8b8baf" letter-spacing="3">SPIN · LEARN · DISCOVER MY PROJECTS</text>
<g font-family="'Segoe UI',sans-serif">
  <text x="32" y="72" font-size="9" fill="#6d6d8e" letter-spacing="1.2">COMMUNITY SPINS</text>
  <text x="32" y="88" font-size="14" font-weight="700" fill="#ffd700">27</text>
  <text x="528" y="72" text-anchor="end" font-size="9" fill="#6d6d8e" letter-spacing="1.2">WINS</text>
  <text x="528" y="88" text-anchor="end" font-size="14" font-weight="700" fill="#4ade80">9</text>
</g>
<rect x="73" y="104" width="78" height="168" rx="9" fill="url(#reelbg1777579331217)"/><rect x="157" y="104" width="78" height="168" rx="9" fill="url(#reelbg1777579331217)"/><rect x="241" y="104" width="78" height="168" rx="9" fill="url(#reelbg1777579331217)"/><rect x="325" y="104" width="78" height="168" rx="9" fill="url(#reelbg1777579331217)"/><rect x="409" y="104" width="78" height="168" rx="9" fill="url(#reelbg1777579331217)"/>
<g clip-path="url(#cp1777579331217c0)"><g style="animation:rs1777579331217c0 1.4s cubic-bezier(.1,.7,.3,1) forwards"><use href="#sym_1777579331217_glsl" x="73" y="104" width="78" height="56"/><use href="#sym_1777579331217_python" x="73" y="160" width="78" height="56"/><use href="#sym_1777579331217_react" x="73" y="216" width="78" height="56"/><use href="#sym_1777579331217_cpp" x="73" y="272" width="78" height="56"/><use href="#sym_1777579331217_wild" x="73" y="328" width="78" height="56"/><use href="#sym_1777579331217_cpp" x="73" y="384" width="78" height="56"/><use href="#sym_1777579331217_glsl" x="73" y="440" width="78" height="56"/><use href="#sym_1777579331217_react" x="73" y="496" width="78" height="56"/><use href="#sym_1777579331217_cpp" x="73" y="552" width="78" height="56"/><use href="#sym_1777579331217_cpp" x="73" y="608" width="78" height="56"/><use href="#sym_1777579331217_react" x="73" y="664" width="78" height="56"/><use href="#sym_1777579331217_wild" x="73" y="720" width="78" height="56"/><use href="#sym_1777579331217_javascript" x="73" y="776" width="78" height="56"/><use href="#sym_1777579331217_wild" x="73" y="832" width="78" height="56"/><use href="#sym_1777579331217_javascript" x="73" y="888" width="78" height="56"/><use href="#sym_1777579331217_glsl" x="73" y="944" width="78" height="56"/><use href="#sym_1777579331217_wild" x="73" y="1000" width="78" height="56"/></g></g><g clip-path="url(#cp1777579331217c1)"><g style="animation:rs1777579331217c1 1.9s cubic-bezier(.1,.7,.3,1) forwards"><use href="#sym_1777579331217_react" x="157" y="104" width="78" height="56"/><use href="#sym_1777579331217_cpp" x="157" y="160" width="78" height="56"/><use href="#sym_1777579331217_glsl" x="157" y="216" width="78" height="56"/><use href="#sym_1777579331217_javascript" x="157" y="272" width="78" height="56"/><use href="#sym_1777579331217_javascript" x="157" y="328" width="78" height="56"/><use href="#sym_1777579331217_python" x="157" y="384" width="78" height="56"/><use href="#sym_1777579331217_javascript" x="157" y="440" width="78" height="56"/><use href="#sym_1777579331217_glsl" x="157" y="496" width="78" height="56"/><use href="#sym_1777579331217_wild" x="157" y="552" width="78" height="56"/><use href="#sym_1777579331217_javascript" x="157" y="608" width="78" height="56"/><use href="#sym_1777579331217_cpp" x="157" y="664" width="78" height="56"/><use href="#sym_1777579331217_wild" x="157" y="720" width="78" height="56"/><use href="#sym_1777579331217_react" x="157" y="776" width="78" height="56"/><use href="#sym_1777579331217_glsl" x="157" y="832" width="78" height="56"/><use href="#sym_1777579331217_react" x="157" y="888" width="78" height="56"/><use href="#sym_1777579331217_python" x="157" y="944" width="78" height="56"/><use href="#sym_1777579331217_javascript" x="157" y="1000" width="78" height="56"/></g></g><g clip-path="url(#cp1777579331217c2)"><g style="animation:rs1777579331217c2 2.4s cubic-bezier(.1,.7,.3,1) forwards"><use href="#sym_1777579331217_glsl" x="241" y="104" width="78" height="56"/><use href="#sym_1777579331217_javascript" x="241" y="160" width="78" height="56"/><use href="#sym_1777579331217_javascript" x="241" y="216" width="78" height="56"/><use href="#sym_1777579331217_glsl" x="241" y="272" width="78" height="56"/><use href="#sym_1777579331217_cpp" x="241" y="328" width="78" height="56"/><use href="#sym_1777579331217_python" x="241" y="384" width="78" height="56"/><use href="#sym_1777579331217_cpp" x="241" y="440" width="78" height="56"/><use href="#sym_1777579331217_react" x="241" y="496" width="78" height="56"/><use href="#sym_1777579331217_glsl" x="241" y="552" width="78" height="56"/><use href="#sym_1777579331217_cpp" x="241" y="608" width="78" height="56"/><use href="#sym_1777579331217_glsl" x="241" y="664" width="78" height="56"/><use href="#sym_1777579331217_javascript" x="241" y="720" width="78" height="56"/><use href="#sym_1777579331217_react" x="241" y="776" width="78" height="56"/><use href="#sym_1777579331217_javascript" x="241" y="832" width="78" height="56"/><use href="#sym_1777579331217_javascript" x="241" y="888" width="78" height="56"/><use href="#sym_1777579331217_cpp" x="241" y="944" width="78" height="56"/><use href="#sym_1777579331217_react" x="241" y="1000" width="78" height="56"/></g></g><g clip-path="url(#cp1777579331217c3)"><g style="animation:rs1777579331217c3 2.9s cubic-bezier(.1,.7,.3,1) forwards"><use href="#sym_1777579331217_glsl" x="325" y="104" width="78" height="56"/><use href="#sym_1777579331217_python" x="325" y="160" width="78" height="56"/><use href="#sym_1777579331217_glsl" x="325" y="216" width="78" height="56"/><use href="#sym_1777579331217_wild" x="325" y="272" width="78" height="56"/><use href="#sym_1777579331217_wild" x="325" y="328" width="78" height="56"/><use href="#sym_1777579331217_wild" x="325" y="384" width="78" height="56"/><use href="#sym_1777579331217_react" x="325" y="440" width="78" height="56"/><use href="#sym_1777579331217_wild" x="325" y="496" width="78" height="56"/><use href="#sym_1777579331217_wild" x="325" y="552" width="78" height="56"/><use href="#sym_1777579331217_javascript" x="325" y="608" width="78" height="56"/><use href="#sym_1777579331217_python" x="325" y="664" width="78" height="56"/><use href="#sym_1777579331217_glsl" x="325" y="720" width="78" height="56"/><use href="#sym_1777579331217_scatter" x="325" y="776" width="78" height="56"/><use href="#sym_1777579331217_javascript" x="325" y="832" width="78" height="56"/><use href="#sym_1777579331217_python" x="325" y="888" width="78" height="56"/><use href="#sym_1777579331217_glsl" x="325" y="944" width="78" height="56"/><use href="#sym_1777579331217_glsl" x="325" y="1000" width="78" height="56"/></g></g><g clip-path="url(#cp1777579331217c4)"><g style="animation:rs1777579331217c4 3.4s cubic-bezier(.1,.7,.3,1) forwards"><use href="#sym_1777579331217_cpp" x="409" y="104" width="78" height="56"/><use href="#sym_1777579331217_cpp" x="409" y="160" width="78" height="56"/><use href="#sym_1777579331217_python" x="409" y="216" width="78" height="56"/><use href="#sym_1777579331217_javascript" x="409" y="272" width="78" height="56"/><use href="#sym_1777579331217_cpp" x="409" y="328" width="78" height="56"/><use href="#sym_1777579331217_javascript" x="409" y="384" width="78" height="56"/><use href="#sym_1777579331217_python" x="409" y="440" width="78" height="56"/><use href="#sym_1777579331217_javascript" x="409" y="496" width="78" height="56"/><use href="#sym_1777579331217_wild" x="409" y="552" width="78" height="56"/><use href="#sym_1777579331217_python" x="409" y="608" width="78" height="56"/><use href="#sym_1777579331217_cpp" x="409" y="664" width="78" height="56"/><use href="#sym_1777579331217_cpp" x="409" y="720" width="78" height="56"/><use href="#sym_1777579331217_glsl" x="409" y="776" width="78" height="56"/><use href="#sym_1777579331217_react" x="409" y="832" width="78" height="56"/><use href="#sym_1777579331217_glsl" x="409" y="888" width="78" height="56"/><use href="#sym_1777579331217_python" x="409" y="944" width="78" height="56"/><use href="#sym_1777579331217_glsl" x="409" y="1000" width="78" height="56"/></g></g>
<rect x="73" y="104" width="78" height="168" rx="9" fill="none" stroke="#e94560" stroke-width="1.4" opacity="0.55"/><rect x="157" y="104" width="78" height="168" rx="9" fill="none" stroke="#e94560" stroke-width="1.4" opacity="0.55"/><rect x="241" y="104" width="78" height="168" rx="9" fill="none" stroke="#e94560" stroke-width="1.4" opacity="0.55"/><rect x="325" y="104" width="78" height="168" rx="9" fill="none" stroke="#e94560" stroke-width="1.4" opacity="0.55"/><rect x="409" y="104" width="78" height="168" rx="9" fill="none" stroke="#e94560" stroke-width="1.4" opacity="0.55"/>
<polygon points="59,188 69,183 69,193" fill="#ffd700" opacity=".45"/><polygon points="59,132 69,127 69,137" fill="#ff6b6b" opacity=".45"/><polygon points="59,244 69,239 69,249" fill="#4ecdc4" opacity=".45"/><polygon points="59,132 69,127 69,137" fill="#a855f7" opacity=".45"/><polygon points="59,244 69,239 69,249" fill="#fb923c" opacity=".45"/>






<rect x="20" y="286" width="520" height="152" rx="12" fill="#0e0d24" stroke="#e94560" stroke-width="1" opacity="0.9"/><text x="280" y="367" text-anchor="middle" font-family="'Segoe UI',sans-serif" font-size="14" fill="#e94560" style="animation:fi1777579331217 .4s 3.8s forwards;opacity:0">Ritenta, sarai più fortunato!</text>

<text x="280" y="456" text-anchor="middle" font-family="'Segoe UI',sans-serif" font-size="9" fill="#5d5d80">★ Wild  ·  ✦ Scatter (3+ = Free Spin)  ·  5 paylines  ·  github.com/simrim96</text>
</svg>