<svg width="560" height="420" viewBox="0 0 560 420" xmlns="http://www.w3.org/2000/svg" xmlns:xlink="http://www.w3.org/1999/xlink">
<defs><radialGradient id="bg1777578742530" cx="50%" cy="0%" r="120%"><stop offset="0%" stop-color="#2a2754"/><stop offset="55%" stop-color="#171530"/><stop offset="100%" stop-color="#0b0a1f"/></radialGradient><linearGradient id="hdr1777578742530" x1="0" y1="0" x2="1" y2="0"><stop offset="0%" stop-color="#ff6b6b"/><stop offset="33%" stop-color="#ffd700"/><stop offset="66%" stop-color="#4ecdc4"/><stop offset="100%" stop-color="#a855f7"/></linearGradient><linearGradient id="reelbg1777578742530" x1="0" y1="0" x2="0" y2="1"><stop offset="0%" stop-color="#0b0b1f"/><stop offset="100%" stop-color="#1a1a35"/></linearGradient><filter id="glow1777578742530" x="-30%" y="-30%" width="160%" height="160%"><feGaussianBlur stdDeviation="2.5" result="b"/><feMerge><feMergeNode in="b"/><feMergeNode in="SourceGraphic"/></feMerge></filter><clipPath id="cp1777578742530c0"><rect x="73" y="90" width="78" height="168"/></clipPath><clipPath id="cp1777578742530c1"><rect x="157" y="90" width="78" height="168"/></clipPath><clipPath id="cp1777578742530c2"><rect x="241" y="90" width="78" height="168"/></clipPath><clipPath id="cp1777578742530c3"><rect x="325" y="90" width="78" height="168"/></clipPath><clipPath id="cp1777578742530c4"><rect x="409" y="90" width="78" height="168"/></clipPath>
<linearGradient id="g_1777578742530_cpp" x1="0" y1="0" x2="0" y2="1">
  <stop offset="0%" stop-color="#00599C" stop-opacity="1"/>
  <stop offset="100%" stop-color="#004375" stop-opacity="1"/>
</linearGradient>
<symbol id="sym_1777578742530_cpp" viewBox="0 0 78 56">
  <rect x="3" y="3" width="72" height="50" rx="9" fill="url(#g_1777578742530_cpp)"/>
  <rect x="3" y="3" width="72" height="50" rx="9" fill="none" stroke="#9FD3F0" stroke-width="1.6" opacity="0.85"/>
  <rect x="6" y="6" width="66" height="14" rx="5" fill="#ffffff" opacity="0.10"/>
  
  <text x="39" y="36" text-anchor="middle" font-family="'Segoe UI','Helvetica Neue',sans-serif" font-size="15" font-weight="700" fill="#ffffff" letter-spacing="0.5">C++</text>
</symbol>
<linearGradient id="g_1777578742530_glsl" x1="0" y1="0" x2="0" y2="1">
  <stop offset="0%" stop-color="#5586A4" stop-opacity="1"/>
  <stop offset="100%" stop-color="#40657b" stop-opacity="1"/>
</linearGradient>
<symbol id="sym_1777578742530_glsl" viewBox="0 0 78 56">
  <rect x="3" y="3" width="72" height="50" rx="9" fill="url(#g_1777578742530_glsl)"/>
  <rect x="3" y="3" width="72" height="50" rx="9" fill="none" stroke="#F5B642" stroke-width="1.6" opacity="0.85"/>
  <rect x="6" y="6" width="66" height="14" rx="5" fill="#ffffff" opacity="0.10"/>
  <text x="18" y="38" font-family="'Segoe UI Emoji','Apple Color Emoji',sans-serif" font-size="18" fill="#ffffff" opacity="0.85">◈</text>
  <text x="40" y="36" text-anchor="start" font-family="'Segoe UI','Helvetica Neue',sans-serif" font-size="15" font-weight="700" fill="#ffffff" letter-spacing="0.5">GLSL</text>
</symbol>
<linearGradient id="g_1777578742530_react" x1="0" y1="0" x2="0" y2="1">
  <stop offset="0%" stop-color="#20232A" stop-opacity="1"/>
  <stop offset="100%" stop-color="#181a20" stop-opacity="1"/>
</linearGradient>
<symbol id="sym_1777578742530_react" viewBox="0 0 78 56">
  <rect x="3" y="3" width="72" height="50" rx="9" fill="url(#g_1777578742530_react)"/>
  <rect x="3" y="3" width="72" height="50" rx="9" fill="none" stroke="#61DAFB" stroke-width="1.6" opacity="0.85"/>
  <rect x="6" y="6" width="66" height="14" rx="5" fill="#ffffff" opacity="0.10"/>
  <text x="18" y="38" font-family="'Segoe UI Emoji','Apple Color Emoji',sans-serif" font-size="18" fill="#61DAFB" opacity="0.85">⚛</text>
  <text x="40" y="36" text-anchor="start" font-family="'Segoe UI','Helvetica Neue',sans-serif" font-size="15" font-weight="700" fill="#61DAFB" letter-spacing="0.5">React</text>
</symbol>
<linearGradient id="g_1777578742530_javascript" x1="0" y1="0" x2="0" y2="1">
  <stop offset="0%" stop-color="#F7DF1E" stop-opacity="1"/>
  <stop offset="100%" stop-color="#b9a717" stop-opacity="1"/>
</linearGradient>
<symbol id="sym_1777578742530_javascript" viewBox="0 0 78 56">
  <rect x="3" y="3" width="72" height="50" rx="9" fill="url(#g_1777578742530_javascript)"/>
  <rect x="3" y="3" width="72" height="50" rx="9" fill="none" stroke="#000000" stroke-width="1.6" opacity="0.85"/>
  <rect x="6" y="6" width="66" height="14" rx="5" fill="#ffffff" opacity="0.10"/>
  <text x="18" y="38" font-family="'Segoe UI Emoji','Apple Color Emoji',sans-serif" font-size="18" fill="#1a1a1a" opacity="0.85">{ }</text>
  <text x="40" y="36" text-anchor="start" font-family="'Segoe UI','Helvetica Neue',sans-serif" font-size="15" font-weight="700" fill="#1a1a1a" letter-spacing="0.5">JS</text>
</symbol>
<linearGradient id="g_1777578742530_python" x1="0" y1="0" x2="0" y2="1">
  <stop offset="0%" stop-color="#3776AB" stop-opacity="1"/>
  <stop offset="100%" stop-color="#295980" stop-opacity="1"/>
</linearGradient>
<symbol id="sym_1777578742530_python" viewBox="0 0 78 56">
  <rect x="3" y="3" width="72" height="50" rx="9" fill="url(#g_1777578742530_python)"/>
  <rect x="3" y="3" width="72" height="50" rx="9" fill="none" stroke="#FFD43B" stroke-width="1.6" opacity="0.85"/>
  <rect x="6" y="6" width="66" height="14" rx="5" fill="#ffffff" opacity="0.10"/>
  <text x="18" y="38" font-family="'Segoe UI Emoji','Apple Color Emoji',sans-serif" font-size="18" fill="#ffffff" opacity="0.85">🐍</text>
  <text x="40" y="36" text-anchor="start" font-family="'Segoe UI','Helvetica Neue',sans-serif" font-size="15" font-weight="700" fill="#ffffff" letter-spacing="0.5">Py</text>
</symbol>
<linearGradient id="g_1777578742530_wild" x1="0" y1="0" x2="0" y2="1">
  <stop offset="0%" stop-color="#fde047" stop-opacity="1"/>
  <stop offset="100%" stop-color="#bea835" stop-opacity="1"/>
</linearGradient>
<symbol id="sym_1777578742530_wild" viewBox="0 0 78 56">
  <rect x="3" y="3" width="72" height="50" rx="9" fill="url(#g_1777578742530_wild)"/>
  <rect x="3" y="3" width="72" height="50" rx="9" fill="none" stroke="#a16207" stroke-width="1.6" opacity="0.85"/>
  <rect x="6" y="6" width="66" height="14" rx="5" fill="#ffffff" opacity="0.10"/>
  <text x="18" y="38" font-family="'Segoe UI Emoji','Apple Color Emoji',sans-serif" font-size="18" fill="#1a1a2e" opacity="0.85">★</text>
  <text x="40" y="36" text-anchor="start" font-family="'Segoe UI','Helvetica Neue',sans-serif" font-size="15" font-weight="700" fill="#1a1a2e" letter-spacing="0.5">WILD</text>
</symbol>
<linearGradient id="g_1777578742530_scatter" x1="0" y1="0" x2="0" y2="1">
  <stop offset="0%" stop-color="#a855f7" stop-opacity="1"/>
  <stop offset="100%" stop-color="#7e40b9" stop-opacity="1"/>
</linearGradient>
<symbol id="sym_1777578742530_scatter" viewBox="0 0 78 56">
  <rect x="3" y="3" width="72" height="50" rx="9" fill="url(#g_1777578742530_scatter)"/>
  <rect x="3" y="3" width="72" height="50" rx="9" fill="none" stroke="#f0abfc" stroke-width="1.6" opacity="0.85"/>
  <rect x="6" y="6" width="66" height="14" rx="5" fill="#ffffff" opacity="0.10"/>
  <text x="18" y="38" font-family="'Segoe UI Emoji','Apple Color Emoji',sans-serif" font-size="18" fill="#ffffff" opacity="0.85">✦</text>
  <text x="40" y="36" text-anchor="start" font-family="'Segoe UI','Helvetica Neue',sans-serif" font-size="15" font-weight="700" fill="#ffffff" letter-spacing="0.5">BONUS</text>
</symbol></defs>
<style>@keyframes bl1777578742530{0%,15%{fill:#ffd700;opacity:.9}25%,100%{fill:#444;opacity:.2}}@keyframes rs1777578742530c0{0%{transform:translateY(-784px)}85%{transform:translateY(10px)}94%{transform:translateY(-3px)}100%{transform:translateY(0)}}@keyframes rs1777578742530c1{0%{transform:translateY(-784px)}85%{transform:translateY(10px)}94%{transform:translateY(-3px)}100%{transform:translateY(0)}}@keyframes rs1777578742530c2{0%{transform:translateY(-784px)}65%{transform:translateY(22px)}75%{transform:translateY(-16px)}84%{transform:translateY(9px)}92%{transform:translateY(-4px)}100%{transform:translateY(0)}}@keyframes rs1777578742530c3{0%{transform:translateY(-784px)}85%{transform:translateY(10px)}94%{transform:translateY(-3px)}100%{transform:translateY(0)}}@keyframes rs1777578742530c4{0%{transform:translateY(-784px)}85%{transform:translateY(10px)}94%{transform:translateY(-3px)}100%{transform:translateY(0)}}@keyframes wp1777578742530{0%,100%{opacity:0}50%{opacity:.55}}@keyframes pf1777578742530{from{opacity:0;stroke-width:1}to{opacity:.9;stroke-width:3}}@keyframes ov1777578742530{from{opacity:0}to{opacity:.92}}@keyframes ot1777578742530{from{opacity:0;transform:scale(.5)}to{opacity:1;transform:scale(1)}}@keyframes sg1777578742530{0%,100%{opacity:0;transform:scale(1)}50%{opacity:.6;transform:scale(1.08)}}@keyframes fi1777578742530{from{opacity:0}to{opacity:1}}@keyframes jb1777578742530{0%,100%{stroke:#ffd700}50%{stroke:#e94560}}@keyframes nm1777578742530{0%,100%{opacity:0}30%{opacity:.4}60%{opacity:0}}@keyframes cf1777578742530{0%{transform:translateY(-20px);opacity:1}100%{transform:translateY(180px);opacity:0}}</style>
<rect width="560" height="420" rx="20" fill="url(#bg1777578742530)"/>
<rect x="4" y="4" width="552" height="412" rx="18" fill="none" stroke="#3a3666" stroke-width="2"/>
<circle cx="25" cy="8" r="3.5" fill="#444" opacity=".25" style="animation:bl1777578742530 1.8s 0s infinite"/><circle cx="25" cy="412" r="3.5" fill="#444" opacity=".25" style="animation:bl1777578742530 1.8s 0.052941176470588235s infinite"/><circle cx="76" cy="8" r="3.5" fill="#444" opacity=".25" style="animation:bl1777578742530 1.8s 0.10588235294117647s infinite"/><circle cx="76" cy="412" r="3.5" fill="#444" opacity=".25" style="animation:bl1777578742530 1.8s 0.1588235294117647s infinite"/><circle cx="127" cy="8" r="3.5" fill="#444" opacity=".25" style="animation:bl1777578742530 1.8s 0.21176470588235294s infinite"/><circle cx="127" cy="412" r="3.5" fill="#444" opacity=".25" style="animation:bl1777578742530 1.8s 0.2647058823529412s infinite"/><circle cx="178" cy="8" r="3.5" fill="#444" opacity=".25" style="animation:bl1777578742530 1.8s 0.3176470588235294s infinite"/><circle cx="178" cy="412" r="3.5" fill="#444" opacity=".25" style="animation:bl1777578742530 1.8s 0.37058823529411766s infinite"/><circle cx="229" cy="8" r="3.5" fill="#444" opacity=".25" style="animation:bl1777578742530 1.8s 0.4235294117647059s infinite"/><circle cx="229" cy="412" r="3.5" fill="#444" opacity=".25" style="animation:bl1777578742530 1.8s 0.4764705882352941s infinite"/><circle cx="280" cy="8" r="3.5" fill="#444" opacity=".25" style="animation:bl1777578742530 1.8s 0.5294117647058824s infinite"/><circle cx="280" cy="412" r="3.5" fill="#444" opacity=".25" style="animation:bl1777578742530 1.8s 0.5823529411764706s infinite"/><circle cx="331" cy="8" r="3.5" fill="#444" opacity=".25" style="animation:bl1777578742530 1.8s 0.6352941176470588s infinite"/><circle cx="331" cy="412" r="3.5" fill="#444" opacity=".25" style="animation:bl1777578742530 1.8s 0.6882352941176471s infinite"/><circle cx="382" cy="8" r="3.5" fill="#444" opacity=".25" style="animation:bl1777578742530 1.8s 0.7411764705882353s infinite"/><circle cx="382" cy="412" r="3.5" fill="#444" opacity=".25" style="animation:bl1777578742530 1.8s 0.7941176470588235s infinite"/><circle cx="433" cy="8" r="3.5" fill="#444" opacity=".25" style="animation:bl1777578742530 1.8s 0.8470588235294118s infinite"/><circle cx="433" cy="412" r="3.5" fill="#444" opacity=".25" style="animation:bl1777578742530 1.8s 0.9s infinite"/><circle cx="484" cy="8" r="3.5" fill="#444" opacity=".25" style="animation:bl1777578742530 1.8s 0.9529411764705882s infinite"/><circle cx="484" cy="412" r="3.5" fill="#444" opacity=".25" style="animation:bl1777578742530 1.8s 1.0058823529411764s infinite"/><circle cx="535" cy="8" r="3.5" fill="#444" opacity=".25" style="animation:bl1777578742530 1.8s 1.0588235294117647s infinite"/><circle cx="535" cy="412" r="3.5" fill="#444" opacity=".25" style="animation:bl1777578742530 1.8s 1.111764705882353s infinite"/><circle cx="8" cy="50" r="3.5" fill="#444" opacity=".25" style="animation:bl1777578742530 1.8s 1.1647058823529413s infinite"/><circle cx="552" cy="50" r="3.5" fill="#444" opacity=".25" style="animation:bl1777578742530 1.8s 1.2176470588235293s infinite"/><circle cx="8" cy="110" r="3.5" fill="#444" opacity=".25" style="animation:bl1777578742530 1.8s 1.2705882352941176s infinite"/><circle cx="552" cy="110" r="3.5" fill="#444" opacity=".25" style="animation:bl1777578742530 1.8s 1.3235294117647058s infinite"/><circle cx="8" cy="170" r="3.5" fill="#444" opacity=".25" style="animation:bl1777578742530 1.8s 1.3764705882352941s infinite"/><circle cx="552" cy="170" r="3.5" fill="#444" opacity=".25" style="animation:bl1777578742530 1.8s 1.4294117647058824s infinite"/><circle cx="8" cy="230" r="3.5" fill="#444" opacity=".25" style="animation:bl1777578742530 1.8s 1.4823529411764707s infinite"/><circle cx="552" cy="230" r="3.5" fill="#444" opacity=".25" style="animation:bl1777578742530 1.8s 1.5352941176470587s infinite"/><circle cx="8" cy="290" r="3.5" fill="#444" opacity=".25" style="animation:bl1777578742530 1.8s 1.588235294117647s infinite"/><circle cx="552" cy="290" r="3.5" fill="#444" opacity=".25" style="animation:bl1777578742530 1.8s 1.6411764705882352s infinite"/><circle cx="8" cy="350" r="3.5" fill="#444" opacity=".25" style="animation:bl1777578742530 1.8s 1.6941176470588235s infinite"/><circle cx="552" cy="350" r="3.5" fill="#444" opacity=".25" style="animation:bl1777578742530 1.8s 1.7470588235294118s infinite"/>

<rect x="14" y="14" width="532" height="72" rx="14" fill="#13122d" opacity="0.85"/>
<text x="280" y="42" text-anchor="middle" font-family="'Segoe UI','Helvetica Neue',sans-serif" font-size="22" font-weight="800" fill="url(#hdr1777578742530)" filter="url(#glow1777578742530)">DEV STACK SLOT MACHINE</text>
<text x="280" y="60" text-anchor="middle" font-family="'Segoe UI',sans-serif" font-size="10" fill="#8b8baf" letter-spacing="3">SPIN · LEARN · DISCOVER MY PROJECTS</text>
<g font-family="'Segoe UI',sans-serif">
  <text x="32" y="80" font-size="10" fill="#6d6d8e">COMMUNITY SPINS</text>
  <text x="32" y="76" font-size="14" font-weight="700" fill="#ffd700">13</text>
  <text x="528" y="80" text-anchor="end" font-size="10" fill="#6d6d8e">WINS</text>
  <text x="528" y="76" text-anchor="end" font-size="14" font-weight="700" fill="#4ade80">4</text>
</g>
<rect x="73" y="90" width="78" height="168" rx="9" fill="url(#reelbg1777578742530)"/><rect x="157" y="90" width="78" height="168" rx="9" fill="url(#reelbg1777578742530)"/><rect x="241" y="90" width="78" height="168" rx="9" fill="url(#reelbg1777578742530)"/><rect x="325" y="90" width="78" height="168" rx="9" fill="url(#reelbg1777578742530)"/><rect x="409" y="90" width="78" height="168" rx="9" fill="url(#reelbg1777578742530)"/>
<g clip-path="url(#cp1777578742530c0)"><g style="animation:rs1777578742530c0 1.4s cubic-bezier(.1,.7,.3,1) forwards"><use href="#sym_1777578742530_python" x="73" y="90" width="78" height="56"/><use href="#sym_1777578742530_cpp" x="73" y="146" width="78" height="56"/><use href="#sym_1777578742530_glsl" x="73" y="202" width="78" height="56"/><use href="#sym_1777578742530_glsl" x="73" y="258" width="78" height="56"/><use href="#sym_1777578742530_javascript" x="73" y="314" width="78" height="56"/><use href="#sym_1777578742530_javascript" x="73" y="370" width="78" height="56"/><use href="#sym_1777578742530_python" x="73" y="426" width="78" height="56"/><use href="#sym_1777578742530_python" x="73" y="482" width="78" height="56"/><use href="#sym_1777578742530_react" x="73" y="538" width="78" height="56"/><use href="#sym_1777578742530_react" x="73" y="594" width="78" height="56"/><use href="#sym_1777578742530_react" x="73" y="650" width="78" height="56"/><use href="#sym_1777578742530_javascript" x="73" y="706" width="78" height="56"/><use href="#sym_1777578742530_glsl" x="73" y="762" width="78" height="56"/><use href="#sym_1777578742530_cpp" x="73" y="818" width="78" height="56"/><use href="#sym_1777578742530_javascript" x="73" y="874" width="78" height="56"/><use href="#sym_1777578742530_javascript" x="73" y="930" width="78" height="56"/><use href="#sym_1777578742530_react" x="73" y="986" width="78" height="56"/></g></g><g clip-path="url(#cp1777578742530c1)"><g style="animation:rs1777578742530c1 1.9s cubic-bezier(.1,.7,.3,1) forwards"><use href="#sym_1777578742530_javascript" x="157" y="90" width="78" height="56"/><use href="#sym_1777578742530_cpp" x="157" y="146" width="78" height="56"/><use href="#sym_1777578742530_react" x="157" y="202" width="78" height="56"/><use href="#sym_1777578742530_javascript" x="157" y="258" width="78" height="56"/><use href="#sym_1777578742530_glsl" x="157" y="314" width="78" height="56"/><use href="#sym_1777578742530_react" x="157" y="370" width="78" height="56"/><use href="#sym_1777578742530_cpp" x="157" y="426" width="78" height="56"/><use href="#sym_1777578742530_wild" x="157" y="482" width="78" height="56"/><use href="#sym_1777578742530_glsl" x="157" y="538" width="78" height="56"/><use href="#sym_1777578742530_javascript" x="157" y="594" width="78" height="56"/><use href="#sym_1777578742530_react" x="157" y="650" width="78" height="56"/><use href="#sym_1777578742530_python" x="157" y="706" width="78" height="56"/><use href="#sym_1777578742530_javascript" x="157" y="762" width="78" height="56"/><use href="#sym_1777578742530_python" x="157" y="818" width="78" height="56"/><use href="#sym_1777578742530_glsl" x="157" y="874" width="78" height="56"/><use href="#sym_1777578742530_javascript" x="157" y="930" width="78" height="56"/><use href="#sym_1777578742530_glsl" x="157" y="986" width="78" height="56"/></g></g><g clip-path="url(#cp1777578742530c2)"><g style="animation:rs1777578742530c2 3.0999999999999996s cubic-bezier(.1,.7,.3,1) forwards"><use href="#sym_1777578742530_wild" x="241" y="90" width="78" height="56"/><use href="#sym_1777578742530_glsl" x="241" y="146" width="78" height="56"/><use href="#sym_1777578742530_cpp" x="241" y="202" width="78" height="56"/><use href="#sym_1777578742530_javascript" x="241" y="258" width="78" height="56"/><use href="#sym_1777578742530_javascript" x="241" y="314" width="78" height="56"/><use href="#sym_1777578742530_python" x="241" y="370" width="78" height="56"/><use href="#sym_1777578742530_react" x="241" y="426" width="78" height="56"/><use href="#sym_1777578742530_cpp" x="241" y="482" width="78" height="56"/><use href="#sym_1777578742530_react" x="241" y="538" width="78" height="56"/><use href="#sym_1777578742530_cpp" x="241" y="594" width="78" height="56"/><use href="#sym_1777578742530_react" x="241" y="650" width="78" height="56"/><use href="#sym_1777578742530_python" x="241" y="706" width="78" height="56"/><use href="#sym_1777578742530_python" x="241" y="762" width="78" height="56"/><use href="#sym_1777578742530_cpp" x="241" y="818" width="78" height="56"/><use href="#sym_1777578742530_glsl" x="241" y="874" width="78" height="56"/><use href="#sym_1777578742530_scatter" x="241" y="930" width="78" height="56"/><use href="#sym_1777578742530_python" x="241" y="986" width="78" height="56"/></g></g><g clip-path="url(#cp1777578742530c3)"><g style="animation:rs1777578742530c3 2.9s cubic-bezier(.1,.7,.3,1) forwards"><use href="#sym_1777578742530_python" x="325" y="90" width="78" height="56"/><use href="#sym_1777578742530_javascript" x="325" y="146" width="78" height="56"/><use href="#sym_1777578742530_cpp" x="325" y="202" width="78" height="56"/><use href="#sym_1777578742530_cpp" x="325" y="258" width="78" height="56"/><use href="#sym_1777578742530_glsl" x="325" y="314" width="78" height="56"/><use href="#sym_1777578742530_glsl" x="325" y="370" width="78" height="56"/><use href="#sym_1777578742530_cpp" x="325" y="426" width="78" height="56"/><use href="#sym_1777578742530_react" x="325" y="482" width="78" height="56"/><use href="#sym_1777578742530_cpp" x="325" y="538" width="78" height="56"/><use href="#sym_1777578742530_python" x="325" y="594" width="78" height="56"/><use href="#sym_1777578742530_react" x="325" y="650" width="78" height="56"/><use href="#sym_1777578742530_cpp" x="325" y="706" width="78" height="56"/><use href="#sym_1777578742530_wild" x="325" y="762" width="78" height="56"/><use href="#sym_1777578742530_javascript" x="325" y="818" width="78" height="56"/><use href="#sym_1777578742530_python" x="325" y="874" width="78" height="56"/><use href="#sym_1777578742530_glsl" x="325" y="930" width="78" height="56"/><use href="#sym_1777578742530_cpp" x="325" y="986" width="78" height="56"/></g></g><g clip-path="url(#cp1777578742530c4)"><g style="animation:rs1777578742530c4 3.4s cubic-bezier(.1,.7,.3,1) forwards"><use href="#sym_1777578742530_glsl" x="409" y="90" width="78" height="56"/><use href="#sym_1777578742530_cpp" x="409" y="146" width="78" height="56"/><use href="#sym_1777578742530_cpp" x="409" y="202" width="78" height="56"/><use href="#sym_1777578742530_glsl" x="409" y="258" width="78" height="56"/><use href="#sym_1777578742530_javascript" x="409" y="314" width="78" height="56"/><use href="#sym_1777578742530_python" x="409" y="370" width="78" height="56"/><use href="#sym_1777578742530_javascript" x="409" y="426" width="78" height="56"/><use href="#sym_1777578742530_wild" x="409" y="482" width="78" height="56"/><use href="#sym_1777578742530_glsl" x="409" y="538" width="78" height="56"/><use href="#sym_1777578742530_cpp" x="409" y="594" width="78" height="56"/><use href="#sym_1777578742530_wild" x="409" y="650" width="78" height="56"/><use href="#sym_1777578742530_cpp" x="409" y="706" width="78" height="56"/><use href="#sym_1777578742530_react" x="409" y="762" width="78" height="56"/><use href="#sym_1777578742530_javascript" x="409" y="818" width="78" height="56"/><use href="#sym_1777578742530_wild" x="409" y="874" width="78" height="56"/><use href="#sym_1777578742530_javascript" x="409" y="930" width="78" height="56"/><use href="#sym_1777578742530_glsl" x="409" y="986" width="78" height="56"/></g></g>
<rect x="73" y="90" width="78" height="168" rx="9" fill="none" stroke="#e94560" stroke-width="1.4" opacity="0.55"/><rect x="157" y="90" width="78" height="168" rx="9" fill="none" stroke="#e94560" stroke-width="1.4" opacity="0.55"/><rect x="241" y="90" width="78" height="168" rx="9" fill="none" stroke="#e94560" stroke-width="1.4" opacity="0.55"/><rect x="325" y="90" width="78" height="168" rx="9" fill="none" stroke="#e94560" stroke-width="1.4" opacity="0.55"/><rect x="409" y="90" width="78" height="168" rx="9" fill="none" stroke="#e94560" stroke-width="1.4" opacity="0.55"/>
<polygon points="59,174 69,169 69,179" fill="#ffd700" opacity=".45"/><polygon points="59,118 69,113 69,123" fill="#ff6b6b" opacity=".45"/><polygon points="59,230 69,225 69,235" fill="#4ecdc4" opacity=".45"/><polygon points="59,118 69,113 69,123" fill="#a855f7" opacity=".45"/><polygon points="59,230 69,225 69,235" fill="#fb923c" opacity=".45"/>



<rect x="241" y="90" width="78" height="168" rx="9" fill="#f59e0b" style="animation:nm1777578742530 1.2s 3.8s 2;opacity:0"/>


<rect x="20" y="272" width="520" height="116" rx="12" fill="#0e0d24" stroke="#f59e0b" stroke-width="1" opacity="0.9"/><text x="280" y="335" text-anchor="middle" font-family="'Segoe UI',sans-serif" font-size="14" fill="#f59e0b" style="animation:fi1777578742530 .4s 3.8s forwards;opacity:0">😱 Così vicino! Ritenta!</text>

<text x="280" y="406" text-anchor="middle" font-family="'Segoe UI',sans-serif" font-size="9" fill="#5d5d80">★ Wild  ·  ✦ Scatter (3+ = Free Spin)  ·  5 paylines  ·  github.com/simrim96</text>
</svg>