<svg width="600" height="700" viewBox="0 0 600 700" xmlns="http://www.w3.org/2000/svg" xmlns:xlink="http://www.w3.org/1999/xlink">
<defs><radialGradient id="bg1777582960074" cx="50%" cy="0%" r="120%"><stop offset="0%" stop-color="#2a2754"/><stop offset="55%" stop-color="#171530"/><stop offset="100%" stop-color="#0b0a1f"/></radialGradient><linearGradient id="hdr1777582960074" x1="0" y1="0" x2="1" y2="0"><stop offset="0%" stop-color="#ff6b6b"/><stop offset="33%" stop-color="#ffd700"/><stop offset="66%" stop-color="#4ecdc4"/><stop offset="100%" stop-color="#a855f7"/></linearGradient><linearGradient id="reelbg1777582960074" x1="0" y1="0" x2="0" y2="1"><stop offset="0%" stop-color="#0b0b1f"/><stop offset="100%" stop-color="#1a1a35"/></linearGradient><filter id="glow1777582960074" x="-30%" y="-30%" width="160%" height="160%"><feGaussianBlur stdDeviation="2.5" result="b"/><feMerge><feMergeNode in="b"/><feMergeNode in="SourceGraphic"/></feMerge></filter><linearGradient id="shg1777582960074" x1="0" y1="0" x2="0" y2="1"><stop offset="0%" stop-color="#ffd700" stop-opacity="0"/><stop offset="50%" stop-color="#ffd700" stop-opacity=".55"/><stop offset="100%" stop-color="#ffd700" stop-opacity="0"/></linearGradient><clipPath id="cp1777582960074c0"><rect x="74" y="230" width="84" height="252"/></clipPath><clipPath id="cp1777582960074c1"><rect x="166" y="230" width="84" height="252"/></clipPath><clipPath id="cp1777582960074c2"><rect x="258" y="230" width="84" height="252"/></clipPath><clipPath id="cp1777582960074c3"><rect x="350" y="230" width="84" height="252"/></clipPath><clipPath id="cp1777582960074c4"><rect x="442" y="230" width="84" height="252"/></clipPath>
<linearGradient id="g_1777582960074_cpp" x1="0" y1="0" x2="0" y2="1">
  <stop offset="0%" stop-color="#00599C" stop-opacity="1"/>
  <stop offset="100%" stop-color="#004375" stop-opacity="1"/>
</linearGradient>
<symbol id="sym_1777582960074_cpp" viewBox="0 0 84 84">
  <rect x="4" y="4" width="76" height="76" rx="11" fill="url(#g_1777582960074_cpp)"/>
  <rect x="4" y="4" width="76" height="76" rx="11" fill="none" stroke="#9FD3F0" stroke-width="1.6" opacity="0.85"/>
  <rect x="7" y="7" width="70" height="14" rx="5" fill="#ffffff" opacity="0.07"/>
  
      <g transform="translate(42,38)">
        <path d="M0,-22 L19,-11 L19,11 L0,22 L-19,11 L-19,-11 Z"
              fill="#004482" stroke="#9FD3F0" stroke-width="1.4"/>
        <text x="0" y="6" text-anchor="middle" font-family="'Segoe UI',sans-serif"
              font-size="16" font-weight="900" fill="#ffffff" letter-spacing="-0.5">C++</text>
      </g>
  <text x="42" y="73" text-anchor="middle" font-family="'Segoe UI','Helvetica Neue',sans-serif"
        font-size="10" font-weight="700" fill="#ffffff" letter-spacing="0.7" opacity="0.95">C++</text>
</symbol>
<linearGradient id="g_1777582960074_c" x1="0" y1="0" x2="0" y2="1">
  <stop offset="0%" stop-color="#283593" stop-opacity="1"/>
  <stop offset="100%" stop-color="#1e286e" stop-opacity="1"/>
</linearGradient>
<symbol id="sym_1777582960074_c" viewBox="0 0 84 84">
  <rect x="4" y="4" width="76" height="76" rx="11" fill="url(#g_1777582960074_c)"/>
  <rect x="4" y="4" width="76" height="76" rx="11" fill="none" stroke="#A8B9CC" stroke-width="1.6" opacity="0.85"/>
  <rect x="7" y="7" width="70" height="14" rx="5" fill="#ffffff" opacity="0.07"/>
  
      <g transform="translate(42,38)">
        <path d="M0,-22 L19,-11 L19,11 L0,22 L-19,11 L-19,-11 Z"
              fill="#1c2d6e" stroke="#A8B9CC" stroke-width="1.4"/>
        <text x="0" y="7" text-anchor="middle" font-family="'Segoe UI',sans-serif"
              font-size="22" font-weight="900" fill="#ffffff">C</text>
      </g>
  <text x="42" y="73" text-anchor="middle" font-family="'Segoe UI','Helvetica Neue',sans-serif"
        font-size="10" font-weight="700" fill="#ffffff" letter-spacing="0.7" opacity="0.95">C</text>
</symbol>
<linearGradient id="g_1777582960074_glsl" x1="0" y1="0" x2="0" y2="1">
  <stop offset="0%" stop-color="#5586A4" stop-opacity="1"/>
  <stop offset="100%" stop-color="#40657b" stop-opacity="1"/>
</linearGradient>
<symbol id="sym_1777582960074_glsl" viewBox="0 0 84 84">
  <rect x="4" y="4" width="76" height="76" rx="11" fill="url(#g_1777582960074_glsl)"/>
  <rect x="4" y="4" width="76" height="76" rx="11" fill="none" stroke="#F5B642" stroke-width="1.6" opacity="0.85"/>
  <rect x="7" y="7" width="70" height="14" rx="5" fill="#ffffff" opacity="0.07"/>
  
      <g transform="translate(42,38)">
        <polygon points="0,-22 19,-11 19,11 0,22 -19,11 -19,-11"
                 fill="#3a6178" stroke="#F5B642" stroke-width="1.8"/>
        <polygon points="0,-13 11,-6.5 11,6.5 0,13 -11,6.5 -11,-6.5"
                 fill="none" stroke="#F5B642" stroke-width="1.2" opacity="0.6"/>
        <text x="0" y="5" text-anchor="middle" font-family="'Segoe UI',sans-serif"
              font-size="13" font-weight="900" fill="#ffffff">GL</text>
      </g>
  <text x="42" y="73" text-anchor="middle" font-family="'Segoe UI','Helvetica Neue',sans-serif"
        font-size="10" font-weight="700" fill="#ffffff" letter-spacing="0.7" opacity="0.95">GLSL</text>
</symbol>
<linearGradient id="g_1777582960074_react" x1="0" y1="0" x2="0" y2="1">
  <stop offset="0%" stop-color="#20232A" stop-opacity="1"/>
  <stop offset="100%" stop-color="#181a20" stop-opacity="1"/>
</linearGradient>
<symbol id="sym_1777582960074_react" viewBox="0 0 84 84">
  <rect x="4" y="4" width="76" height="76" rx="11" fill="url(#g_1777582960074_react)"/>
  <rect x="4" y="4" width="76" height="76" rx="11" fill="none" stroke="#61DAFB" stroke-width="1.6" opacity="0.85"/>
  <rect x="7" y="7" width="70" height="14" rx="5" fill="#ffffff" opacity="0.07"/>
  
      <g transform="translate(42,38)">
        <ellipse cx="0" cy="0" rx="20" ry="7.5" fill="none" stroke="#61DAFB" stroke-width="1.8"/>
        <ellipse cx="0" cy="0" rx="20" ry="7.5" fill="none" stroke="#61DAFB" stroke-width="1.8" transform="rotate(60)"/>
        <ellipse cx="0" cy="0" rx="20" ry="7.5" fill="none" stroke="#61DAFB" stroke-width="1.8" transform="rotate(120)"/>
        <circle cx="0" cy="0" r="3.6" fill="#61DAFB"/>
      </g>
  <text x="42" y="73" text-anchor="middle" font-family="'Segoe UI','Helvetica Neue',sans-serif"
        font-size="10" font-weight="700" fill="#61DAFB" letter-spacing="0.7" opacity="0.95">React</text>
</symbol>
<linearGradient id="g_1777582960074_javascript" x1="0" y1="0" x2="0" y2="1">
  <stop offset="0%" stop-color="#F7DF1E" stop-opacity="1"/>
  <stop offset="100%" stop-color="#b9a717" stop-opacity="1"/>
</linearGradient>
<symbol id="sym_1777582960074_javascript" viewBox="0 0 84 84">
  <rect x="4" y="4" width="76" height="76" rx="11" fill="url(#g_1777582960074_javascript)"/>
  <rect x="4" y="4" width="76" height="76" rx="11" fill="none" stroke="#000000" stroke-width="1.6" opacity="0.85"/>
  <rect x="7" y="7" width="70" height="14" rx="5" fill="#ffffff" opacity="0.07"/>
  
      <g transform="translate(42,38)">
        <rect x="-22" y="-22" width="44" height="44" rx="4" fill="#F7DF1E" stroke="#1a1a1a" stroke-width="1.2"/>
        <text x="16" y="16" text-anchor="end" font-family="'Segoe UI',sans-serif"
              font-size="19" font-weight="900" fill="#1a1a1a" letter-spacing="-0.5">JS</text>
      </g>
  <text x="42" y="73" text-anchor="middle" font-family="'Segoe UI','Helvetica Neue',sans-serif"
        font-size="10" font-weight="700" fill="#1a1a1a" letter-spacing="0.7" opacity="0.95">JS</text>
</symbol>
<linearGradient id="g_1777582960074_python" x1="0" y1="0" x2="0" y2="1">
  <stop offset="0%" stop-color="#3776AB" stop-opacity="1"/>
  <stop offset="100%" stop-color="#295980" stop-opacity="1"/>
</linearGradient>
<symbol id="sym_1777582960074_python" viewBox="0 0 84 84">
  <rect x="4" y="4" width="76" height="76" rx="11" fill="url(#g_1777582960074_python)"/>
  <rect x="4" y="4" width="76" height="76" rx="11" fill="none" stroke="#FFD43B" stroke-width="1.6" opacity="0.85"/>
  <rect x="7" y="7" width="70" height="14" rx="5" fill="#ffffff" opacity="0.07"/>
  
      <g transform="translate(42,38) scale(1.45)">
        <path d="M-2,-14 Q-9,-14 -9,-7 V-3 H1 V-1 H-11 Q-15,-1 -15,5 V9 Q-15,14 -10,14 H-6 V8 Q-6,4 -1,4 H7 Q12,4 12,-1 V-7 Q12,-14 5,-14 Z"
              fill="#3776AB" stroke="#ffffff" stroke-width="0.6"/>
        <circle cx="-5" cy="-10" r="1.4" fill="#ffffff"/>
        <path d="M2,14 Q9,14 9,7 V3 H-1 V1 H11 Q15,1 15,-5 V-9 Q15,-14 10,-14 H6 V-8 Q6,-4 1,-4 H-7 Q-12,-4 -12,1 V7 Q-12,14 -5,14 Z"
              fill="#FFD43B" stroke="#ffffff" stroke-width="0.6"/>
        <circle cx="5" cy="10" r="1.4" fill="#ffffff"/>
      </g>
  <text x="42" y="73" text-anchor="middle" font-family="'Segoe UI','Helvetica Neue',sans-serif"
        font-size="10" font-weight="700" fill="#ffffff" letter-spacing="0.7" opacity="0.95">Py</text>
</symbol>
<linearGradient id="g_1777582960074_typescript" x1="0" y1="0" x2="0" y2="1">
  <stop offset="0%" stop-color="#3178C6" stop-opacity="1"/>
  <stop offset="100%" stop-color="#255a95" stop-opacity="1"/>
</linearGradient>
<symbol id="sym_1777582960074_typescript" viewBox="0 0 84 84">
  <rect x="4" y="4" width="76" height="76" rx="11" fill="url(#g_1777582960074_typescript)"/>
  <rect x="4" y="4" width="76" height="76" rx="11" fill="none" stroke="#235A97" stroke-width="1.6" opacity="0.85"/>
  <rect x="7" y="7" width="70" height="14" rx="5" fill="#ffffff" opacity="0.07"/>
  
      <g transform="translate(42,38)">
        <rect x="-22" y="-22" width="44" height="44" rx="4" fill="#3178C6" stroke="#235A97" stroke-width="1.2"/>
        <text x="16" y="16" text-anchor="end" font-family="'Segoe UI',sans-serif"
              font-size="19" font-weight="900" fill="#ffffff" letter-spacing="-0.5">TS</text>
      </g>
  <text x="42" y="73" text-anchor="middle" font-family="'Segoe UI','Helvetica Neue',sans-serif"
        font-size="10" font-weight="700" fill="#ffffff" letter-spacing="0.7" opacity="0.95">TS</text>
</symbol>
<linearGradient id="g_1777582960074_qt" x1="0" y1="0" x2="0" y2="1">
  <stop offset="0%" stop-color="#0F3D26" stop-opacity="1"/>
  <stop offset="100%" stop-color="#0b2e1d" stop-opacity="1"/>
</linearGradient>
<symbol id="sym_1777582960074_qt" viewBox="0 0 84 84">
  <rect x="4" y="4" width="76" height="76" rx="11" fill="url(#g_1777582960074_qt)"/>
  <rect x="4" y="4" width="76" height="76" rx="11" fill="none" stroke="#41CD52" stroke-width="1.6" opacity="0.85"/>
  <rect x="7" y="7" width="70" height="14" rx="5" fill="#ffffff" opacity="0.07"/>
  
      <g transform="translate(42,38)">
        <circle cx="0" cy="0" r="22" fill="#41CD52" stroke="#0F3D26" stroke-width="1.4"/>
        <text x="0" y="8" text-anchor="middle" font-family="'Segoe UI',serif"
              font-size="24" font-weight="900" fill="#ffffff" font-style="italic">Qt</text>
      </g>
  <text x="42" y="73" text-anchor="middle" font-family="'Segoe UI','Helvetica Neue',sans-serif"
        font-size="10" font-weight="700" fill="#ffffff" letter-spacing="0.7" opacity="0.95">Qt</text>
</symbol>
<linearGradient id="g_1777582960074_wild" x1="0" y1="0" x2="0" y2="1">
  <stop offset="0%" stop-color="#fde047" stop-opacity="1"/>
  <stop offset="100%" stop-color="#bea835" stop-opacity="1"/>
</linearGradient>
<symbol id="sym_1777582960074_wild" viewBox="0 0 84 84">
  <rect x="4" y="4" width="76" height="76" rx="11" fill="url(#g_1777582960074_wild)"/>
  <rect x="4" y="4" width="76" height="76" rx="11" fill="none" stroke="#a16207" stroke-width="1.6" opacity="0.85"/>
  <rect x="7" y="7" width="70" height="14" rx="5" fill="#ffffff" opacity="0.07"/>
  
    <g transform="translate(42,38)">
      <text x="0" y="9" text-anchor="middle"
            font-family="'Fira Code','Consolas','Courier New',monospace"
            font-size="24" font-weight="900" fill="#1a1a2e" letter-spacing="-1">&lt;/&gt;</text>
    </g>
  <text x="42" y="73" text-anchor="middle" font-family="'Segoe UI','Helvetica Neue',sans-serif"
        font-size="10" font-weight="700" fill="#1a1a2e" letter-spacing="0.7" opacity="0.95">WILD</text>
</symbol>
<linearGradient id="g_1777582960074_scatter" x1="0" y1="0" x2="0" y2="1">
  <stop offset="0%" stop-color="#a855f7" stop-opacity="1"/>
  <stop offset="100%" stop-color="#7e40b9" stop-opacity="1"/>
</linearGradient>
<symbol id="sym_1777582960074_scatter" viewBox="0 0 84 84">
  <rect x="4" y="4" width="76" height="76" rx="11" fill="url(#g_1777582960074_scatter)"/>
  <rect x="4" y="4" width="76" height="76" rx="11" fill="none" stroke="#f0abfc" stroke-width="1.6" opacity="0.85"/>
  <rect x="7" y="7" width="70" height="14" rx="5" fill="#ffffff" opacity="0.07"/>
  
    <g transform="translate(42,38)">
      <path d="M0,-19 L5,-5 L19,0 L5,5 L0,19 L-5,5 L-19,0 L-5,-5 Z"
            fill="#ffffff" stroke="#f0abfc" stroke-width="1.2"/>
    </g>
  <text x="42" y="73" text-anchor="middle" font-family="'Segoe UI','Helvetica Neue',sans-serif"
        font-size="10" font-weight="700" fill="#ffffff" letter-spacing="0.7" opacity="0.95">BONUS</text>
</symbol></defs>
<style>@keyframes bl1777582960074{0%,15%{fill:#ffd700;opacity:.9}25%,100%{fill:#444;opacity:.2}}@keyframes rs1777582960074c0{0%{transform:translateY(-1512px)}85%{transform:translateY(12px)}94%{transform:translateY(-4px)}100%{transform:translateY(0)}}@keyframes rs1777582960074c1{0%{transform:translateY(-1512px)}85%{transform:translateY(12px)}94%{transform:translateY(-4px)}100%{transform:translateY(0)}}@keyframes rs1777582960074c2{0%{transform:translateY(-1512px)}85%{transform:translateY(12px)}94%{transform:translateY(-4px)}100%{transform:translateY(0)}}@keyframes rs1777582960074c3{0%{transform:translateY(-1512px)}85%{transform:translateY(12px)}94%{transform:translateY(-4px)}100%{transform:translateY(0)}}@keyframes rs1777582960074c4{0%{transform:translateY(-1512px)}85%{transform:translateY(12px)}94%{transform:translateY(-4px)}100%{transform:translateY(0)}}@keyframes wp1777582960074{0%,100%{opacity:0}50%{opacity:.55}}@keyframes ov1777582960074{from{opacity:0}to{opacity:.92}}@keyframes ot1777582960074{from{opacity:0;transform:scale(.5)}to{opacity:1;transform:scale(1)}}@keyframes fi1777582960074{from{opacity:0}to{opacity:1}}@keyframes jb1777582960074{0%,100%{stroke:#ffd700}50%{stroke:#e94560}}@keyframes nm1777582960074{0%,100%{opacity:0}30%{opacity:.4}60%{opacity:0}}@keyframes cf1777582960074{0%{transform:translateY(-20px);opacity:1}100%{transform:translateY(220px);opacity:0}}@keyframes sh1777582960074{0%{opacity:0;stroke-width:1}8%{opacity:1;stroke-width:5}50%{opacity:1;stroke-width:4}90%{opacity:1;stroke-width:6}96%{opacity:1;stroke-width:4}100%{opacity:0;stroke-width:0}}@keyframes shp1777582960074{0%{opacity:0}10%{opacity:.45}50%{opacity:.55}90%{opacity:.65}97%{opacity:.55}100%{opacity:0}}@keyframes shm1777582960074{0%{transform:translateY(-100%)}100%{transform:translateY(272px)}}</style>
<rect width="600" height="700" rx="20" fill="url(#bg1777582960074)"/>
<rect x="4" y="4" width="592" height="692" rx="18" fill="none" stroke="#3a3666" stroke-width="2"/>
<circle cx="25" cy="8" r="3.5" fill="#444" opacity=".25" style="animation:bl1777582960074 1.8s 0s infinite"/><circle cx="25" cy="692" r="3.5" fill="#444" opacity=".25" style="animation:bl1777582960074 1.8s 0.0391304347826087s infinite"/><circle cx="76" cy="8" r="3.5" fill="#444" opacity=".25" style="animation:bl1777582960074 1.8s 0.0782608695652174s infinite"/><circle cx="76" cy="692" r="3.5" fill="#444" opacity=".25" style="animation:bl1777582960074 1.8s 0.1173913043478261s infinite"/><circle cx="127" cy="8" r="3.5" fill="#444" opacity=".25" style="animation:bl1777582960074 1.8s 0.1565217391304348s infinite"/><circle cx="127" cy="692" r="3.5" fill="#444" opacity=".25" style="animation:bl1777582960074 1.8s 0.1956521739130435s infinite"/><circle cx="178" cy="8" r="3.5" fill="#444" opacity=".25" style="animation:bl1777582960074 1.8s 0.2347826086956522s infinite"/><circle cx="178" cy="692" r="3.5" fill="#444" opacity=".25" style="animation:bl1777582960074 1.8s 0.2739130434782609s infinite"/><circle cx="229" cy="8" r="3.5" fill="#444" opacity=".25" style="animation:bl1777582960074 1.8s 0.3130434782608696s infinite"/><circle cx="229" cy="692" r="3.5" fill="#444" opacity=".25" style="animation:bl1777582960074 1.8s 0.3521739130434783s infinite"/><circle cx="280" cy="8" r="3.5" fill="#444" opacity=".25" style="animation:bl1777582960074 1.8s 0.391304347826087s infinite"/><circle cx="280" cy="692" r="3.5" fill="#444" opacity=".25" style="animation:bl1777582960074 1.8s 0.43043478260869567s infinite"/><circle cx="331" cy="8" r="3.5" fill="#444" opacity=".25" style="animation:bl1777582960074 1.8s 0.4695652173913044s infinite"/><circle cx="331" cy="692" r="3.5" fill="#444" opacity=".25" style="animation:bl1777582960074 1.8s 0.5086956521739131s infinite"/><circle cx="382" cy="8" r="3.5" fill="#444" opacity=".25" style="animation:bl1777582960074 1.8s 0.5478260869565218s infinite"/><circle cx="382" cy="692" r="3.5" fill="#444" opacity=".25" style="animation:bl1777582960074 1.8s 0.5869565217391305s infinite"/><circle cx="433" cy="8" r="3.5" fill="#444" opacity=".25" style="animation:bl1777582960074 1.8s 0.6260869565217392s infinite"/><circle cx="433" cy="692" r="3.5" fill="#444" opacity=".25" style="animation:bl1777582960074 1.8s 0.6652173913043479s infinite"/><circle cx="484" cy="8" r="3.5" fill="#444" opacity=".25" style="animation:bl1777582960074 1.8s 0.7043478260869566s infinite"/><circle cx="484" cy="692" r="3.5" fill="#444" opacity=".25" style="animation:bl1777582960074 1.8s 0.7434782608695653s infinite"/><circle cx="535" cy="8" r="3.5" fill="#444" opacity=".25" style="animation:bl1777582960074 1.8s 0.782608695652174s infinite"/><circle cx="535" cy="692" r="3.5" fill="#444" opacity=".25" style="animation:bl1777582960074 1.8s 0.8217391304347826s infinite"/><circle cx="586" cy="8" r="3.5" fill="#444" opacity=".25" style="animation:bl1777582960074 1.8s 0.8608695652173913s infinite"/><circle cx="586" cy="692" r="3.5" fill="#444" opacity=".25" style="animation:bl1777582960074 1.8s 0.9s infinite"/><circle cx="8" cy="50" r="3.5" fill="#444" opacity=".25" style="animation:bl1777582960074 1.8s 0.9391304347826088s infinite"/><circle cx="592" cy="50" r="3.5" fill="#444" opacity=".25" style="animation:bl1777582960074 1.8s 0.9782608695652175s infinite"/><circle cx="8" cy="110" r="3.5" fill="#444" opacity=".25" style="animation:bl1777582960074 1.8s 1.0173913043478262s infinite"/><circle cx="592" cy="110" r="3.5" fill="#444" opacity=".25" style="animation:bl1777582960074 1.8s 1.056521739130435s infinite"/><circle cx="8" cy="170" r="3.5" fill="#444" opacity=".25" style="animation:bl1777582960074 1.8s 1.0956521739130436s infinite"/><circle cx="592" cy="170" r="3.5" fill="#444" opacity=".25" style="animation:bl1777582960074 1.8s 1.1347826086956523s infinite"/><circle cx="8" cy="230" r="3.5" fill="#444" opacity=".25" style="animation:bl1777582960074 1.8s 1.173913043478261s infinite"/><circle cx="592" cy="230" r="3.5" fill="#444" opacity=".25" style="animation:bl1777582960074 1.8s 1.2130434782608697s infinite"/><circle cx="8" cy="290" r="3.5" fill="#444" opacity=".25" style="animation:bl1777582960074 1.8s 1.2521739130434784s infinite"/><circle cx="592" cy="290" r="3.5" fill="#444" opacity=".25" style="animation:bl1777582960074 1.8s 1.291304347826087s infinite"/><circle cx="8" cy="350" r="3.5" fill="#444" opacity=".25" style="animation:bl1777582960074 1.8s 1.3304347826086957s infinite"/><circle cx="592" cy="350" r="3.5" fill="#444" opacity=".25" style="animation:bl1777582960074 1.8s 1.3695652173913044s infinite"/><circle cx="8" cy="410" r="3.5" fill="#444" opacity=".25" style="animation:bl1777582960074 1.8s 1.4086956521739131s infinite"/><circle cx="592" cy="410" r="3.5" fill="#444" opacity=".25" style="animation:bl1777582960074 1.8s 1.4478260869565218s infinite"/><circle cx="8" cy="470" r="3.5" fill="#444" opacity=".25" style="animation:bl1777582960074 1.8s 1.4869565217391305s infinite"/><circle cx="592" cy="470" r="3.5" fill="#444" opacity=".25" style="animation:bl1777582960074 1.8s 1.5260869565217392s infinite"/><circle cx="8" cy="530" r="3.5" fill="#444" opacity=".25" style="animation:bl1777582960074 1.8s 1.565217391304348s infinite"/><circle cx="592" cy="530" r="3.5" fill="#444" opacity=".25" style="animation:bl1777582960074 1.8s 1.6043478260869566s infinite"/><circle cx="8" cy="590" r="3.5" fill="#444" opacity=".25" style="animation:bl1777582960074 1.8s 1.6434782608695653s infinite"/><circle cx="592" cy="590" r="3.5" fill="#444" opacity=".25" style="animation:bl1777582960074 1.8s 1.682608695652174s infinite"/><circle cx="8" cy="650" r="3.5" fill="#444" opacity=".25" style="animation:bl1777582960074 1.8s 1.7217391304347827s infinite"/><circle cx="592" cy="650" r="3.5" fill="#444" opacity=".25" style="animation:bl1777582960074 1.8s 1.7608695652173914s infinite"/>

<rect x="14" y="14" width="572" height="86" rx="14" fill="#13122d" opacity="0.85"/>
<text x="300" y="40" text-anchor="middle" font-family="'Segoe UI','Helvetica Neue',sans-serif" font-size="22" font-weight="800" fill="url(#hdr1777582960074)" filter="url(#glow1777582960074)">DEV STACK SLOT MACHINE</text>
<text x="300" y="58" text-anchor="middle" font-family="'Segoe UI',sans-serif" font-size="10" fill="#8b8baf" letter-spacing="3">SPIN · LEARN · DISCOVER MY PROJECTS</text>
<g font-family="'Segoe UI',sans-serif">
  <text x="32" y="73" font-size="9" fill="#8b8bac" font-weight="700" letter-spacing="1.2">COMMUNITY SPINS</text>
  <text x="32" y="84" font-size="7" fill="#5d5d80" font-style="italic" letter-spacing="0.6">giri totali</text>
  <text x="32" y="100" font-size="15" font-weight="800" fill="#ffd700">44</text>
  <text x="568" y="73" text-anchor="end" font-size="9" fill="#8b8bac" font-weight="700" letter-spacing="1.2">WINS</text>
  <text x="568" y="84" text-anchor="end" font-size="7" fill="#5d5d80" font-style="italic" letter-spacing="0.6">vincite</text>
  <text x="568" y="100" text-anchor="end" font-size="15" font-weight="800" fill="#4ade80">23</text>
</g>
<rect x="14" y="104" width="572" height="112" rx="14"
                         fill="#13122d" stroke="#26244a" stroke-width="1" opacity="0.92"/><text x="28" y="120" font-family="'Segoe UI',sans-serif" font-size="10" font-weight="800" fill="#ffd700" letter-spacing="2">PAYTABLE · HIGHER MASTERY = HIGHER PAYOUT</text><text x="28" y="132" font-family="'Segoe UI',sans-serif" font-size="8" font-style="italic" fill="#8b8baf" letter-spacing="0.5">Più pallini = livello di padronanza dell'owner = simbolo che paga di più nella slot</text><text x="572" y="120" text-anchor="end" font-family="'Segoe UI',sans-serif" font-size="8" fill="#6d6d8e" letter-spacing="0.5">EXPERT</text><text x="484" y="120" text-anchor="end" font-family="'Segoe UI',sans-serif" font-size="8" fill="#6d6d8e" letter-spacing="0.5">FAMILIAR</text><use href="#sym_1777582960074_cpp" x="30.75" y="140" width="38" height="38"/><text x="49.75" y="189" text-anchor="middle" font-family="'Segoe UI',sans-serif" font-size="9" font-weight="700" fill="#d4d4e8">C++</text><circle cx="38.95" cy="200" r="2.2" fill="#9FD3F0" stroke="#9FD3F0" stroke-width="0.6"/><circle cx="44.35" cy="200" r="2.2" fill="#9FD3F0" stroke="#9FD3F0" stroke-width="0.6"/><circle cx="49.75" cy="200" r="2.2" fill="#9FD3F0" stroke="#9FD3F0" stroke-width="0.6"/><circle cx="55.15" cy="200" r="2.2" fill="#9FD3F0" stroke="#9FD3F0" stroke-width="0.6"/><circle cx="60.55" cy="200" r="2.2" fill="#2a2754" stroke="#3a3666" stroke-width="0.6"/><use href="#sym_1777582960074_c" x="102.25" y="140" width="38" height="38"/><text x="121.25" y="189" text-anchor="middle" font-family="'Segoe UI',sans-serif" font-size="9" font-weight="700" fill="#d4d4e8">C</text><circle cx="110.45" cy="200" r="2.2" fill="#A8B9CC" stroke="#A8B9CC" stroke-width="0.6"/><circle cx="115.85" cy="200" r="2.2" fill="#A8B9CC" stroke="#A8B9CC" stroke-width="0.6"/><circle cx="121.25" cy="200" r="2.2" fill="#A8B9CC" stroke="#A8B9CC" stroke-width="0.6"/><circle cx="126.65" cy="200" r="2.2" fill="#2a2754" stroke="#3a3666" stroke-width="0.6"/><circle cx="132.05" cy="200" r="2.2" fill="#2a2754" stroke="#3a3666" stroke-width="0.6"/><use href="#sym_1777582960074_glsl" x="173.75" y="140" width="38" height="38"/><text x="192.75" y="189" text-anchor="middle" font-family="'Segoe UI',sans-serif" font-size="9" font-weight="700" fill="#d4d4e8">GLSL</text><circle cx="181.95" cy="200" r="2.2" fill="#F5B642" stroke="#F5B642" stroke-width="0.6"/><circle cx="187.35" cy="200" r="2.2" fill="#F5B642" stroke="#F5B642" stroke-width="0.6"/><circle cx="192.75" cy="200" r="2.2" fill="#F5B642" stroke="#F5B642" stroke-width="0.6"/><circle cx="198.15" cy="200" r="2.2" fill="#2a2754" stroke="#3a3666" stroke-width="0.6"/><circle cx="203.55" cy="200" r="2.2" fill="#2a2754" stroke="#3a3666" stroke-width="0.6"/><use href="#sym_1777582960074_react" x="245.25" y="140" width="38" height="38"/><text x="264.25" y="189" text-anchor="middle" font-family="'Segoe UI',sans-serif" font-size="9" font-weight="700" fill="#d4d4e8">React</text><circle cx="253.45" cy="200" r="2.2" fill="#61DAFB" stroke="#61DAFB" stroke-width="0.6"/><circle cx="258.85" cy="200" r="2.2" fill="#61DAFB" stroke="#61DAFB" stroke-width="0.6"/><circle cx="264.25" cy="200" r="2.2" fill="#61DAFB" stroke="#61DAFB" stroke-width="0.6"/><circle cx="269.65" cy="200" r="2.2" fill="#61DAFB" stroke="#61DAFB" stroke-width="0.6"/><circle cx="275.05" cy="200" r="2.2" fill="#2a2754" stroke="#3a3666" stroke-width="0.6"/><use href="#sym_1777582960074_javascript" x="316.75" y="140" width="38" height="38"/><text x="335.75" y="189" text-anchor="middle" font-family="'Segoe UI',sans-serif" font-size="9" font-weight="700" fill="#d4d4e8">JavaScript</text><circle cx="324.95" cy="200" r="2.2" fill="#000000" stroke="#000000" stroke-width="0.6"/><circle cx="330.35" cy="200" r="2.2" fill="#000000" stroke="#000000" stroke-width="0.6"/><circle cx="335.75" cy="200" r="2.2" fill="#000000" stroke="#000000" stroke-width="0.6"/><circle cx="341.15" cy="200" r="2.2" fill="#000000" stroke="#000000" stroke-width="0.6"/><circle cx="346.55" cy="200" r="2.2" fill="#000000" stroke="#000000" stroke-width="0.6"/><use href="#sym_1777582960074_python" x="388.25" y="140" width="38" height="38"/><text x="407.25" y="189" text-anchor="middle" font-family="'Segoe UI',sans-serif" font-size="9" font-weight="700" fill="#d4d4e8">Python</text><circle cx="396.45" cy="200" r="2.2" fill="#FFD43B" stroke="#FFD43B" stroke-width="0.6"/><circle cx="401.85" cy="200" r="2.2" fill="#FFD43B" stroke="#FFD43B" stroke-width="0.6"/><circle cx="407.25" cy="200" r="2.2" fill="#FFD43B" stroke="#FFD43B" stroke-width="0.6"/><circle cx="412.65" cy="200" r="2.2" fill="#FFD43B" stroke="#FFD43B" stroke-width="0.6"/><circle cx="418.05" cy="200" r="2.2" fill="#2a2754" stroke="#3a3666" stroke-width="0.6"/><use href="#sym_1777582960074_typescript" x="459.75" y="140" width="38" height="38"/><text x="478.75" y="189" text-anchor="middle" font-family="'Segoe UI',sans-serif" font-size="9" font-weight="700" fill="#d4d4e8">TypeScript</text><circle cx="467.95" cy="200" r="2.2" fill="#235A97" stroke="#235A97" stroke-width="0.6"/><circle cx="473.35" cy="200" r="2.2" fill="#235A97" stroke="#235A97" stroke-width="0.6"/><circle cx="478.75" cy="200" r="2.2" fill="#235A97" stroke="#235A97" stroke-width="0.6"/><circle cx="484.15" cy="200" r="2.2" fill="#235A97" stroke="#235A97" stroke-width="0.6"/><circle cx="489.55" cy="200" r="2.2" fill="#2a2754" stroke="#3a3666" stroke-width="0.6"/><use href="#sym_1777582960074_qt" x="531.25" y="140" width="38" height="38"/><text x="550.25" y="189" text-anchor="middle" font-family="'Segoe UI',sans-serif" font-size="9" font-weight="700" fill="#d4d4e8">Qt</text><circle cx="539.45" cy="200" r="2.2" fill="#41CD52" stroke="#41CD52" stroke-width="0.6"/><circle cx="544.85" cy="200" r="2.2" fill="#41CD52" stroke="#41CD52" stroke-width="0.6"/><circle cx="550.25" cy="200" r="2.2" fill="#41CD52" stroke="#41CD52" stroke-width="0.6"/><circle cx="555.65" cy="200" r="2.2" fill="#2a2754" stroke="#3a3666" stroke-width="0.6"/><circle cx="561.05" cy="200" r="2.2" fill="#2a2754" stroke="#3a3666" stroke-width="0.6"/>
<rect x="74" y="230" width="84" height="252" rx="11" fill="url(#reelbg1777582960074)"/><rect x="166" y="230" width="84" height="252" rx="11" fill="url(#reelbg1777582960074)"/><rect x="258" y="230" width="84" height="252" rx="11" fill="url(#reelbg1777582960074)"/><rect x="350" y="230" width="84" height="252" rx="11" fill="url(#reelbg1777582960074)"/><rect x="442" y="230" width="84" height="252" rx="11" fill="url(#reelbg1777582960074)"/>
<g clip-path="url(#cp1777582960074c0)"><g style="animation:rs1777582960074c0 3s cubic-bezier(.1,.7,.3,1) forwards"><use href="#sym_1777582960074_glsl" x="74" y="230" width="84" height="84"/><use href="#sym_1777582960074_wild" x="74" y="314" width="84" height="84"/><use href="#sym_1777582960074_qt" x="74" y="398" width="84" height="84"/><use href="#sym_1777582960074_typescript" x="74" y="482" width="84" height="84"/><use href="#sym_1777582960074_python" x="74" y="566" width="84" height="84"/><use href="#sym_1777582960074_react" x="74" y="650" width="84" height="84"/><use href="#sym_1777582960074_javascript" x="74" y="734" width="84" height="84"/><use href="#sym_1777582960074_cpp" x="74" y="818" width="84" height="84"/><use href="#sym_1777582960074_javascript" x="74" y="902" width="84" height="84"/><use href="#sym_1777582960074_javascript" x="74" y="986" width="84" height="84"/><use href="#sym_1777582960074_c" x="74" y="1070" width="84" height="84"/><use href="#sym_1777582960074_typescript" x="74" y="1154" width="84" height="84"/><use href="#sym_1777582960074_qt" x="74" y="1238" width="84" height="84"/><use href="#sym_1777582960074_qt" x="74" y="1322" width="84" height="84"/><use href="#sym_1777582960074_typescript" x="74" y="1406" width="84" height="84"/><use href="#sym_1777582960074_react" x="74" y="1490" width="84" height="84"/><use href="#sym_1777582960074_python" x="74" y="1574" width="84" height="84"/><use href="#sym_1777582960074_cpp" x="74" y="1658" width="84" height="84"/><use href="#sym_1777582960074_glsl" x="74" y="1742" width="84" height="84"/><use href="#sym_1777582960074_glsl" x="74" y="1826" width="84" height="84"/><use href="#sym_1777582960074_wild" x="74" y="1910" width="84" height="84"/></g></g><g clip-path="url(#cp1777582960074c1)"><g style="animation:rs1777582960074c1 3.8s cubic-bezier(.1,.7,.3,1) forwards"><use href="#sym_1777582960074_react" x="166" y="230" width="84" height="84"/><use href="#sym_1777582960074_c" x="166" y="314" width="84" height="84"/><use href="#sym_1777582960074_qt" x="166" y="398" width="84" height="84"/><use href="#sym_1777582960074_cpp" x="166" y="482" width="84" height="84"/><use href="#sym_1777582960074_react" x="166" y="566" width="84" height="84"/><use href="#sym_1777582960074_c" x="166" y="650" width="84" height="84"/><use href="#sym_1777582960074_javascript" x="166" y="734" width="84" height="84"/><use href="#sym_1777582960074_c" x="166" y="818" width="84" height="84"/><use href="#sym_1777582960074_react" x="166" y="902" width="84" height="84"/><use href="#sym_1777582960074_c" x="166" y="986" width="84" height="84"/><use href="#sym_1777582960074_glsl" x="166" y="1070" width="84" height="84"/><use href="#sym_1777582960074_python" x="166" y="1154" width="84" height="84"/><use href="#sym_1777582960074_react" x="166" y="1238" width="84" height="84"/><use href="#sym_1777582960074_c" x="166" y="1322" width="84" height="84"/><use href="#sym_1777582960074_typescript" x="166" y="1406" width="84" height="84"/><use href="#sym_1777582960074_glsl" x="166" y="1490" width="84" height="84"/><use href="#sym_1777582960074_glsl" x="166" y="1574" width="84" height="84"/><use href="#sym_1777582960074_wild" x="166" y="1658" width="84" height="84"/><use href="#sym_1777582960074_react" x="166" y="1742" width="84" height="84"/><use href="#sym_1777582960074_react" x="166" y="1826" width="84" height="84"/><use href="#sym_1777582960074_javascript" x="166" y="1910" width="84" height="84"/></g></g><g clip-path="url(#cp1777582960074c2)"><g style="animation:rs1777582960074c2 4.6s cubic-bezier(.1,.7,.3,1) forwards"><use href="#sym_1777582960074_python" x="258" y="230" width="84" height="84"/><use href="#sym_1777582960074_typescript" x="258" y="314" width="84" height="84"/><use href="#sym_1777582960074_react" x="258" y="398" width="84" height="84"/><use href="#sym_1777582960074_cpp" x="258" y="482" width="84" height="84"/><use href="#sym_1777582960074_python" x="258" y="566" width="84" height="84"/><use href="#sym_1777582960074_javascript" x="258" y="650" width="84" height="84"/><use href="#sym_1777582960074_react" x="258" y="734" width="84" height="84"/><use href="#sym_1777582960074_c" x="258" y="818" width="84" height="84"/><use href="#sym_1777582960074_react" x="258" y="902" width="84" height="84"/><use href="#sym_1777582960074_cpp" x="258" y="986" width="84" height="84"/><use href="#sym_1777582960074_glsl" x="258" y="1070" width="84" height="84"/><use href="#sym_1777582960074_typescript" x="258" y="1154" width="84" height="84"/><use href="#sym_1777582960074_python" x="258" y="1238" width="84" height="84"/><use href="#sym_1777582960074_wild" x="258" y="1322" width="84" height="84"/><use href="#sym_1777582960074_glsl" x="258" y="1406" width="84" height="84"/><use href="#sym_1777582960074_qt" x="258" y="1490" width="84" height="84"/><use href="#sym_1777582960074_react" x="258" y="1574" width="84" height="84"/><use href="#sym_1777582960074_typescript" x="258" y="1658" width="84" height="84"/><use href="#sym_1777582960074_python" x="258" y="1742" width="84" height="84"/><use href="#sym_1777582960074_glsl" x="258" y="1826" width="84" height="84"/><use href="#sym_1777582960074_cpp" x="258" y="1910" width="84" height="84"/></g></g><g clip-path="url(#cp1777582960074c3)"><g style="animation:rs1777582960074c3 5.4s cubic-bezier(.1,.7,.3,1) forwards"><use href="#sym_1777582960074_c" x="350" y="230" width="84" height="84"/><use href="#sym_1777582960074_wild" x="350" y="314" width="84" height="84"/><use href="#sym_1777582960074_wild" x="350" y="398" width="84" height="84"/><use href="#sym_1777582960074_c" x="350" y="482" width="84" height="84"/><use href="#sym_1777582960074_qt" x="350" y="566" width="84" height="84"/><use href="#sym_1777582960074_react" x="350" y="650" width="84" height="84"/><use href="#sym_1777582960074_wild" x="350" y="734" width="84" height="84"/><use href="#sym_1777582960074_cpp" x="350" y="818" width="84" height="84"/><use href="#sym_1777582960074_c" x="350" y="902" width="84" height="84"/><use href="#sym_1777582960074_python" x="350" y="986" width="84" height="84"/><use href="#sym_1777582960074_python" x="350" y="1070" width="84" height="84"/><use href="#sym_1777582960074_qt" x="350" y="1154" width="84" height="84"/><use href="#sym_1777582960074_typescript" x="350" y="1238" width="84" height="84"/><use href="#sym_1777582960074_glsl" x="350" y="1322" width="84" height="84"/><use href="#sym_1777582960074_react" x="350" y="1406" width="84" height="84"/><use href="#sym_1777582960074_python" x="350" y="1490" width="84" height="84"/><use href="#sym_1777582960074_python" x="350" y="1574" width="84" height="84"/><use href="#sym_1777582960074_glsl" x="350" y="1658" width="84" height="84"/><use href="#sym_1777582960074_react" x="350" y="1742" width="84" height="84"/><use href="#sym_1777582960074_qt" x="350" y="1826" width="84" height="84"/><use href="#sym_1777582960074_cpp" x="350" y="1910" width="84" height="84"/></g></g><g clip-path="url(#cp1777582960074c4)"><g style="animation:rs1777582960074c4 6.2s cubic-bezier(.1,.7,.3,1) forwards"><use href="#sym_1777582960074_react" x="442" y="230" width="84" height="84"/><use href="#sym_1777582960074_cpp" x="442" y="314" width="84" height="84"/><use href="#sym_1777582960074_react" x="442" y="398" width="84" height="84"/><use href="#sym_1777582960074_wild" x="442" y="482" width="84" height="84"/><use href="#sym_1777582960074_qt" x="442" y="566" width="84" height="84"/><use href="#sym_1777582960074_cpp" x="442" y="650" width="84" height="84"/><use href="#sym_1777582960074_qt" x="442" y="734" width="84" height="84"/><use href="#sym_1777582960074_cpp" x="442" y="818" width="84" height="84"/><use href="#sym_1777582960074_c" x="442" y="902" width="84" height="84"/><use href="#sym_1777582960074_typescript" x="442" y="986" width="84" height="84"/><use href="#sym_1777582960074_c" x="442" y="1070" width="84" height="84"/><use href="#sym_1777582960074_typescript" x="442" y="1154" width="84" height="84"/><use href="#sym_1777582960074_javascript" x="442" y="1238" width="84" height="84"/><use href="#sym_1777582960074_typescript" x="442" y="1322" width="84" height="84"/><use href="#sym_1777582960074_cpp" x="442" y="1406" width="84" height="84"/><use href="#sym_1777582960074_wild" x="442" y="1490" width="84" height="84"/><use href="#sym_1777582960074_glsl" x="442" y="1574" width="84" height="84"/><use href="#sym_1777582960074_cpp" x="442" y="1658" width="84" height="84"/><use href="#sym_1777582960074_glsl" x="442" y="1742" width="84" height="84"/><use href="#sym_1777582960074_qt" x="442" y="1826" width="84" height="84"/><use href="#sym_1777582960074_typescript" x="442" y="1910" width="84" height="84"/></g></g>

<rect x="74" y="230" width="84" height="252" rx="11" fill="none" stroke="#e94560" stroke-width="1.4" opacity="0.55"/><rect x="166" y="230" width="84" height="252" rx="11" fill="none" stroke="#e94560" stroke-width="1.4" opacity="0.55"/><rect x="258" y="230" width="84" height="252" rx="11" fill="none" stroke="#e94560" stroke-width="1.4" opacity="0.55"/><rect x="350" y="230" width="84" height="252" rx="11" fill="none" stroke="#e94560" stroke-width="1.4" opacity="0.55"/><rect x="442" y="230" width="84" height="252" rx="11" fill="none" stroke="#e94560" stroke-width="1.4" opacity="0.55"/>




<rect x="20" y="496" width="560" height="176" rx="12" fill="#0e0d24" stroke="#e94560" stroke-width="1" opacity="0.9"/><text x="300" y="580" text-anchor="middle" font-family="'Segoe UI',sans-serif" font-size="15" font-weight="700" fill="#e94560" style="animation:fi1777582960074 .4s 6.6000000000000005s forwards;opacity:0">Try again, better luck next time!</text><text x="300" y="600" text-anchor="middle" font-family="'Segoe UI',sans-serif" font-size="11" font-style="italic" fill="#8b8baf" style="animation:fi1777582960074 .4s 6.7s forwards;opacity:0">Ritenta, sarai più fortunato!</text>

<text x="300" y="694" text-anchor="middle" font-family="'Segoe UI',sans-serif" font-size="8" fill="#5d5d80">&lt;/&gt; Wild  ·  5 paylines  ·  5-in-a-row = JACKPOT (all my repos)  ·  github.com/simrim96</text>
</svg>