<svg width="600" height="700" viewBox="0 0 600 700" xmlns="http://www.w3.org/2000/svg" xmlns:xlink="http://www.w3.org/1999/xlink">
<defs><radialGradient id="bg1777581906134" cx="50%" cy="0%" r="120%"><stop offset="0%" stop-color="#2a2754"/><stop offset="55%" stop-color="#171530"/><stop offset="100%" stop-color="#0b0a1f"/></radialGradient><linearGradient id="hdr1777581906134" x1="0" y1="0" x2="1" y2="0"><stop offset="0%" stop-color="#ff6b6b"/><stop offset="33%" stop-color="#ffd700"/><stop offset="66%" stop-color="#4ecdc4"/><stop offset="100%" stop-color="#a855f7"/></linearGradient><linearGradient id="reelbg1777581906134" x1="0" y1="0" x2="0" y2="1"><stop offset="0%" stop-color="#0b0b1f"/><stop offset="100%" stop-color="#1a1a35"/></linearGradient><filter id="glow1777581906134" x="-30%" y="-30%" width="160%" height="160%"><feGaussianBlur stdDeviation="2.5" result="b"/><feMerge><feMergeNode in="b"/><feMergeNode in="SourceGraphic"/></feMerge></filter><linearGradient id="shg1777581906134" x1="0" y1="0" x2="0" y2="1"><stop offset="0%" stop-color="#ffd700" stop-opacity="0"/><stop offset="50%" stop-color="#ffd700" stop-opacity=".55"/><stop offset="100%" stop-color="#ffd700" stop-opacity="0"/></linearGradient><clipPath id="cp1777581906134c0"><rect x="74" y="106" width="84" height="252"/></clipPath><clipPath id="cp1777581906134c1"><rect x="166" y="106" width="84" height="252"/></clipPath><clipPath id="cp1777581906134c2"><rect x="258" y="106" width="84" height="252"/></clipPath><clipPath id="cp1777581906134c3"><rect x="350" y="106" width="84" height="252"/></clipPath><clipPath id="cp1777581906134c4"><rect x="442" y="106" width="84" height="252"/></clipPath>
<linearGradient id="g_1777581906134_cpp" x1="0" y1="0" x2="0" y2="1">
  <stop offset="0%" stop-color="#00599C" stop-opacity="1"/>
  <stop offset="100%" stop-color="#004375" stop-opacity="1"/>
</linearGradient>
<symbol id="sym_1777581906134_cpp" viewBox="0 0 84 84">
  <rect x="4" y="4" width="76" height="76" rx="11" fill="url(#g_1777581906134_cpp)"/>
  <rect x="4" y="4" width="76" height="76" rx="11" fill="none" stroke="#9FD3F0" stroke-width="1.6" opacity="0.85"/>
  <rect x="7" y="7" width="70" height="14" rx="5" fill="#ffffff" opacity="0.07"/>
  
      <g transform="translate(42,38)">
        <path d="M0,-22 L19,-11 L19,11 L0,22 L-19,11 L-19,-11 Z"
              fill="#004482" stroke="#9FD3F0" stroke-width="1.4"/>
        <text x="0" y="6" text-anchor="middle" font-family="'Segoe UI',sans-serif"
              font-size="16" font-weight="900" fill="#ffffff" letter-spacing="-0.5">C++</text>
      </g>
  <text x="42" y="73" text-anchor="middle" font-family="'Segoe UI','Helvetica Neue',sans-serif"
        font-size="10" font-weight="700" fill="#ffffff" letter-spacing="0.7" opacity="0.95">C++</text>
</symbol>
<linearGradient id="g_1777581906134_c" x1="0" y1="0" x2="0" y2="1">
  <stop offset="0%" stop-color="#283593" stop-opacity="1"/>
  <stop offset="100%" stop-color="#1e286e" stop-opacity="1"/>
</linearGradient>
<symbol id="sym_1777581906134_c" viewBox="0 0 84 84">
  <rect x="4" y="4" width="76" height="76" rx="11" fill="url(#g_1777581906134_c)"/>
  <rect x="4" y="4" width="76" height="76" rx="11" fill="none" stroke="#A8B9CC" stroke-width="1.6" opacity="0.85"/>
  <rect x="7" y="7" width="70" height="14" rx="5" fill="#ffffff" opacity="0.07"/>
  
      <g transform="translate(42,38)">
        <path d="M0,-22 L19,-11 L19,11 L0,22 L-19,11 L-19,-11 Z"
              fill="#1c2d6e" stroke="#A8B9CC" stroke-width="1.4"/>
        <text x="0" y="7" text-anchor="middle" font-family="'Segoe UI',sans-serif"
              font-size="22" font-weight="900" fill="#ffffff">C</text>
      </g>
  <text x="42" y="73" text-anchor="middle" font-family="'Segoe UI','Helvetica Neue',sans-serif"
        font-size="10" font-weight="700" fill="#ffffff" letter-spacing="0.7" opacity="0.95">C</text>
</symbol>
<linearGradient id="g_1777581906134_glsl" x1="0" y1="0" x2="0" y2="1">
  <stop offset="0%" stop-color="#5586A4" stop-opacity="1"/>
  <stop offset="100%" stop-color="#40657b" stop-opacity="1"/>
</linearGradient>
<symbol id="sym_1777581906134_glsl" viewBox="0 0 84 84">
  <rect x="4" y="4" width="76" height="76" rx="11" fill="url(#g_1777581906134_glsl)"/>
  <rect x="4" y="4" width="76" height="76" rx="11" fill="none" stroke="#F5B642" stroke-width="1.6" opacity="0.85"/>
  <rect x="7" y="7" width="70" height="14" rx="5" fill="#ffffff" opacity="0.07"/>
  
      <g transform="translate(42,38)">
        <polygon points="0,-22 19,-11 19,11 0,22 -19,11 -19,-11"
                 fill="#3a6178" stroke="#F5B642" stroke-width="1.8"/>
        <polygon points="0,-13 11,-6.5 11,6.5 0,13 -11,6.5 -11,-6.5"
                 fill="none" stroke="#F5B642" stroke-width="1.2" opacity="0.6"/>
        <text x="0" y="5" text-anchor="middle" font-family="'Segoe UI',sans-serif"
              font-size="13" font-weight="900" fill="#ffffff">GL</text>
      </g>
  <text x="42" y="73" text-anchor="middle" font-family="'Segoe UI','Helvetica Neue',sans-serif"
        font-size="10" font-weight="700" fill="#ffffff" letter-spacing="0.7" opacity="0.95">GLSL</text>
</symbol>
<linearGradient id="g_1777581906134_react" x1="0" y1="0" x2="0" y2="1">
  <stop offset="0%" stop-color="#20232A" stop-opacity="1"/>
  <stop offset="100%" stop-color="#181a20" stop-opacity="1"/>
</linearGradient>
<symbol id="sym_1777581906134_react" viewBox="0 0 84 84">
  <rect x="4" y="4" width="76" height="76" rx="11" fill="url(#g_1777581906134_react)"/>
  <rect x="4" y="4" width="76" height="76" rx="11" fill="none" stroke="#61DAFB" stroke-width="1.6" opacity="0.85"/>
  <rect x="7" y="7" width="70" height="14" rx="5" fill="#ffffff" opacity="0.07"/>
  
      <g transform="translate(42,38)">
        <ellipse cx="0" cy="0" rx="20" ry="7.5" fill="none" stroke="#61DAFB" stroke-width="1.8"/>
        <ellipse cx="0" cy="0" rx="20" ry="7.5" fill="none" stroke="#61DAFB" stroke-width="1.8" transform="rotate(60)"/>
        <ellipse cx="0" cy="0" rx="20" ry="7.5" fill="none" stroke="#61DAFB" stroke-width="1.8" transform="rotate(120)"/>
        <circle cx="0" cy="0" r="3.6" fill="#61DAFB"/>
      </g>
  <text x="42" y="73" text-anchor="middle" font-family="'Segoe UI','Helvetica Neue',sans-serif"
        font-size="10" font-weight="700" fill="#61DAFB" letter-spacing="0.7" opacity="0.95">React</text>
</symbol>
<linearGradient id="g_1777581906134_javascript" x1="0" y1="0" x2="0" y2="1">
  <stop offset="0%" stop-color="#F7DF1E" stop-opacity="1"/>
  <stop offset="100%" stop-color="#b9a717" stop-opacity="1"/>
</linearGradient>
<symbol id="sym_1777581906134_javascript" viewBox="0 0 84 84">
  <rect x="4" y="4" width="76" height="76" rx="11" fill="url(#g_1777581906134_javascript)"/>
  <rect x="4" y="4" width="76" height="76" rx="11" fill="none" stroke="#000000" stroke-width="1.6" opacity="0.85"/>
  <rect x="7" y="7" width="70" height="14" rx="5" fill="#ffffff" opacity="0.07"/>
  
      <g transform="translate(42,38)">
        <rect x="-22" y="-22" width="44" height="44" rx="4" fill="#F7DF1E" stroke="#1a1a1a" stroke-width="1.2"/>
        <text x="16" y="16" text-anchor="end" font-family="'Segoe UI',sans-serif"
              font-size="19" font-weight="900" fill="#1a1a1a" letter-spacing="-0.5">JS</text>
      </g>
  <text x="42" y="73" text-anchor="middle" font-family="'Segoe UI','Helvetica Neue',sans-serif"
        font-size="10" font-weight="700" fill="#1a1a1a" letter-spacing="0.7" opacity="0.95">JS</text>
</symbol>
<linearGradient id="g_1777581906134_python" x1="0" y1="0" x2="0" y2="1">
  <stop offset="0%" stop-color="#3776AB" stop-opacity="1"/>
  <stop offset="100%" stop-color="#295980" stop-opacity="1"/>
</linearGradient>
<symbol id="sym_1777581906134_python" viewBox="0 0 84 84">
  <rect x="4" y="4" width="76" height="76" rx="11" fill="url(#g_1777581906134_python)"/>
  <rect x="4" y="4" width="76" height="76" rx="11" fill="none" stroke="#FFD43B" stroke-width="1.6" opacity="0.85"/>
  <rect x="7" y="7" width="70" height="14" rx="5" fill="#ffffff" opacity="0.07"/>
  
      <g transform="translate(42,38) scale(1.45)">
        <path d="M-2,-14 Q-9,-14 -9,-7 V-3 H1 V-1 H-11 Q-15,-1 -15,5 V9 Q-15,14 -10,14 H-6 V8 Q-6,4 -1,4 H7 Q12,4 12,-1 V-7 Q12,-14 5,-14 Z"
              fill="#3776AB" stroke="#ffffff" stroke-width="0.6"/>
        <circle cx="-5" cy="-10" r="1.4" fill="#ffffff"/>
        <path d="M2,14 Q9,14 9,7 V3 H-1 V1 H11 Q15,1 15,-5 V-9 Q15,-14 10,-14 H6 V-8 Q6,-4 1,-4 H-7 Q-12,-4 -12,1 V7 Q-12,14 -5,14 Z"
              fill="#FFD43B" stroke="#ffffff" stroke-width="0.6"/>
        <circle cx="5" cy="10" r="1.4" fill="#ffffff"/>
      </g>
  <text x="42" y="73" text-anchor="middle" font-family="'Segoe UI','Helvetica Neue',sans-serif"
        font-size="10" font-weight="700" fill="#ffffff" letter-spacing="0.7" opacity="0.95">Py</text>
</symbol>
<linearGradient id="g_1777581906134_typescript" x1="0" y1="0" x2="0" y2="1">
  <stop offset="0%" stop-color="#3178C6" stop-opacity="1"/>
  <stop offset="100%" stop-color="#255a95" stop-opacity="1"/>
</linearGradient>
<symbol id="sym_1777581906134_typescript" viewBox="0 0 84 84">
  <rect x="4" y="4" width="76" height="76" rx="11" fill="url(#g_1777581906134_typescript)"/>
  <rect x="4" y="4" width="76" height="76" rx="11" fill="none" stroke="#235A97" stroke-width="1.6" opacity="0.85"/>
  <rect x="7" y="7" width="70" height="14" rx="5" fill="#ffffff" opacity="0.07"/>
  
      <g transform="translate(42,38)">
        <rect x="-22" y="-22" width="44" height="44" rx="4" fill="#3178C6" stroke="#235A97" stroke-width="1.2"/>
        <text x="16" y="16" text-anchor="end" font-family="'Segoe UI',sans-serif"
              font-size="19" font-weight="900" fill="#ffffff" letter-spacing="-0.5">TS</text>
      </g>
  <text x="42" y="73" text-anchor="middle" font-family="'Segoe UI','Helvetica Neue',sans-serif"
        font-size="10" font-weight="700" fill="#ffffff" letter-spacing="0.7" opacity="0.95">TS</text>
</symbol>
<linearGradient id="g_1777581906134_qt" x1="0" y1="0" x2="0" y2="1">
  <stop offset="0%" stop-color="#0F3D26" stop-opacity="1"/>
  <stop offset="100%" stop-color="#0b2e1d" stop-opacity="1"/>
</linearGradient>
<symbol id="sym_1777581906134_qt" viewBox="0 0 84 84">
  <rect x="4" y="4" width="76" height="76" rx="11" fill="url(#g_1777581906134_qt)"/>
  <rect x="4" y="4" width="76" height="76" rx="11" fill="none" stroke="#41CD52" stroke-width="1.6" opacity="0.85"/>
  <rect x="7" y="7" width="70" height="14" rx="5" fill="#ffffff" opacity="0.07"/>
  
      <g transform="translate(42,38)">
        <circle cx="0" cy="0" r="22" fill="#41CD52" stroke="#0F3D26" stroke-width="1.4"/>
        <text x="0" y="8" text-anchor="middle" font-family="'Segoe UI',serif"
              font-size="24" font-weight="900" fill="#ffffff" font-style="italic">Qt</text>
      </g>
  <text x="42" y="73" text-anchor="middle" font-family="'Segoe UI','Helvetica Neue',sans-serif"
        font-size="10" font-weight="700" fill="#ffffff" letter-spacing="0.7" opacity="0.95">Qt</text>
</symbol>
<linearGradient id="g_1777581906134_wild" x1="0" y1="0" x2="0" y2="1">
  <stop offset="0%" stop-color="#fde047" stop-opacity="1"/>
  <stop offset="100%" stop-color="#bea835" stop-opacity="1"/>
</linearGradient>
<symbol id="sym_1777581906134_wild" viewBox="0 0 84 84">
  <rect x="4" y="4" width="76" height="76" rx="11" fill="url(#g_1777581906134_wild)"/>
  <rect x="4" y="4" width="76" height="76" rx="11" fill="none" stroke="#a16207" stroke-width="1.6" opacity="0.85"/>
  <rect x="7" y="7" width="70" height="14" rx="5" fill="#ffffff" opacity="0.07"/>
  
    <g transform="translate(42,38)">
      <text x="0" y="9" text-anchor="middle"
            font-family="'Fira Code','Consolas','Courier New',monospace"
            font-size="24" font-weight="900" fill="#1a1a2e" letter-spacing="-1">&lt;/&gt;</text>
    </g>
  <text x="42" y="73" text-anchor="middle" font-family="'Segoe UI','Helvetica Neue',sans-serif"
        font-size="10" font-weight="700" fill="#1a1a2e" letter-spacing="0.7" opacity="0.95">WILD</text>
</symbol>
<linearGradient id="g_1777581906134_scatter" x1="0" y1="0" x2="0" y2="1">
  <stop offset="0%" stop-color="#a855f7" stop-opacity="1"/>
  <stop offset="100%" stop-color="#7e40b9" stop-opacity="1"/>
</linearGradient>
<symbol id="sym_1777581906134_scatter" viewBox="0 0 84 84">
  <rect x="4" y="4" width="76" height="76" rx="11" fill="url(#g_1777581906134_scatter)"/>
  <rect x="4" y="4" width="76" height="76" rx="11" fill="none" stroke="#f0abfc" stroke-width="1.6" opacity="0.85"/>
  <rect x="7" y="7" width="70" height="14" rx="5" fill="#ffffff" opacity="0.07"/>
  
    <g transform="translate(42,38)">
      <path d="M0,-19 L5,-5 L19,0 L5,5 L0,19 L-5,5 L-19,0 L-5,-5 Z"
            fill="#ffffff" stroke="#f0abfc" stroke-width="1.2"/>
    </g>
  <text x="42" y="73" text-anchor="middle" font-family="'Segoe UI','Helvetica Neue',sans-serif"
        font-size="10" font-weight="700" fill="#ffffff" letter-spacing="0.7" opacity="0.95">BONUS</text>
</symbol></defs>
<style>@keyframes bl1777581906134{0%,100%{fill:#ffd700;opacity:1}50%{fill:#e94560;opacity:.3}}@keyframes rs1777581906134c0{0%{transform:translateY(-1512px)}85%{transform:translateY(12px)}94%{transform:translateY(-4px)}100%{transform:translateY(0)}}@keyframes rs1777581906134c1{0%{transform:translateY(-1512px)}85%{transform:translateY(12px)}94%{transform:translateY(-4px)}100%{transform:translateY(0)}}@keyframes rs1777581906134c2{0%{transform:translateY(-1512px)}85%{transform:translateY(12px)}94%{transform:translateY(-4px)}100%{transform:translateY(0)}}@keyframes rs1777581906134c3{0%{transform:translateY(-1512px)}85%{transform:translateY(12px)}94%{transform:translateY(-4px)}100%{transform:translateY(0)}}@keyframes rs1777581906134c4{0%{transform:translateY(-1512px)}85%{transform:translateY(12px)}94%{transform:translateY(-4px)}100%{transform:translateY(0)}}@keyframes wp1777581906134{0%,100%{opacity:0}50%{opacity:.55}}@keyframes ov1777581906134{from{opacity:0}to{opacity:.92}}@keyframes ot1777581906134{from{opacity:0;transform:scale(.5)}to{opacity:1;transform:scale(1)}}@keyframes fi1777581906134{from{opacity:0}to{opacity:1}}@keyframes jb1777581906134{0%,100%{stroke:#ffd700}50%{stroke:#e94560}}@keyframes nm1777581906134{0%,100%{opacity:0}30%{opacity:.4}60%{opacity:0}}@keyframes cf1777581906134{0%{transform:translateY(-20px);opacity:1}100%{transform:translateY(220px);opacity:0}}@keyframes sh1777581906134{0%{opacity:0;stroke-width:1}8%{opacity:1;stroke-width:5}50%{opacity:1;stroke-width:4}90%{opacity:1;stroke-width:6}96%{opacity:1;stroke-width:4}100%{opacity:0;stroke-width:0}}@keyframes shp1777581906134{0%{opacity:0}10%{opacity:.45}50%{opacity:.55}90%{opacity:.65}97%{opacity:.55}100%{opacity:0}}@keyframes shm1777581906134{0%{transform:translateY(-100%)}100%{transform:translateY(272px)}}</style>
<rect width="600" height="700" rx="20" fill="url(#bg1777581906134)"/>
<rect x="4" y="4" width="592" height="692" rx="18" fill="none" stroke="#16a34a" stroke-width="2.5"/>
<circle cx="25" cy="8" r="3.5" fill="#444" opacity=".25" style="animation:bl1777581906134 0.35s 6.6000000000000005s infinite"/><circle cx="25" cy="692" r="3.5" fill="#444" opacity=".25" style="animation:bl1777581906134 0.35s 6.680000000000001s infinite"/><circle cx="76" cy="8" r="3.5" fill="#444" opacity=".25" style="animation:bl1777581906134 0.35s 6.760000000000001s infinite"/><circle cx="76" cy="692" r="3.5" fill="#444" opacity=".25" style="animation:bl1777581906134 0.35s 6.6000000000000005s infinite"/><circle cx="127" cy="8" r="3.5" fill="#444" opacity=".25" style="animation:bl1777581906134 0.35s 6.680000000000001s infinite"/><circle cx="127" cy="692" r="3.5" fill="#444" opacity=".25" style="animation:bl1777581906134 0.35s 6.760000000000001s infinite"/><circle cx="178" cy="8" r="3.5" fill="#444" opacity=".25" style="animation:bl1777581906134 0.35s 6.6000000000000005s infinite"/><circle cx="178" cy="692" r="3.5" fill="#444" opacity=".25" style="animation:bl1777581906134 0.35s 6.680000000000001s infinite"/><circle cx="229" cy="8" r="3.5" fill="#444" opacity=".25" style="animation:bl1777581906134 0.35s 6.760000000000001s infinite"/><circle cx="229" cy="692" r="3.5" fill="#444" opacity=".25" style="animation:bl1777581906134 0.35s 6.6000000000000005s infinite"/><circle cx="280" cy="8" r="3.5" fill="#444" opacity=".25" style="animation:bl1777581906134 0.35s 6.680000000000001s infinite"/><circle cx="280" cy="692" r="3.5" fill="#444" opacity=".25" style="animation:bl1777581906134 0.35s 6.760000000000001s infinite"/><circle cx="331" cy="8" r="3.5" fill="#444" opacity=".25" style="animation:bl1777581906134 0.35s 6.6000000000000005s infinite"/><circle cx="331" cy="692" r="3.5" fill="#444" opacity=".25" style="animation:bl1777581906134 0.35s 6.680000000000001s infinite"/><circle cx="382" cy="8" r="3.5" fill="#444" opacity=".25" style="animation:bl1777581906134 0.35s 6.760000000000001s infinite"/><circle cx="382" cy="692" r="3.5" fill="#444" opacity=".25" style="animation:bl1777581906134 0.35s 6.6000000000000005s infinite"/><circle cx="433" cy="8" r="3.5" fill="#444" opacity=".25" style="animation:bl1777581906134 0.35s 6.680000000000001s infinite"/><circle cx="433" cy="692" r="3.5" fill="#444" opacity=".25" style="animation:bl1777581906134 0.35s 6.760000000000001s infinite"/><circle cx="484" cy="8" r="3.5" fill="#444" opacity=".25" style="animation:bl1777581906134 0.35s 6.6000000000000005s infinite"/><circle cx="484" cy="692" r="3.5" fill="#444" opacity=".25" style="animation:bl1777581906134 0.35s 6.680000000000001s infinite"/><circle cx="535" cy="8" r="3.5" fill="#444" opacity=".25" style="animation:bl1777581906134 0.35s 6.760000000000001s infinite"/><circle cx="535" cy="692" r="3.5" fill="#444" opacity=".25" style="animation:bl1777581906134 0.35s 6.6000000000000005s infinite"/><circle cx="586" cy="8" r="3.5" fill="#444" opacity=".25" style="animation:bl1777581906134 0.35s 6.680000000000001s infinite"/><circle cx="586" cy="692" r="3.5" fill="#444" opacity=".25" style="animation:bl1777581906134 0.35s 6.760000000000001s infinite"/><circle cx="8" cy="50" r="3.5" fill="#444" opacity=".25" style="animation:bl1777581906134 0.35s 6.6000000000000005s infinite"/><circle cx="592" cy="50" r="3.5" fill="#444" opacity=".25" style="animation:bl1777581906134 0.35s 6.680000000000001s infinite"/><circle cx="8" cy="110" r="3.5" fill="#444" opacity=".25" style="animation:bl1777581906134 0.35s 6.760000000000001s infinite"/><circle cx="592" cy="110" r="3.5" fill="#444" opacity=".25" style="animation:bl1777581906134 0.35s 6.6000000000000005s infinite"/><circle cx="8" cy="170" r="3.5" fill="#444" opacity=".25" style="animation:bl1777581906134 0.35s 6.680000000000001s infinite"/><circle cx="592" cy="170" r="3.5" fill="#444" opacity=".25" style="animation:bl1777581906134 0.35s 6.760000000000001s infinite"/><circle cx="8" cy="230" r="3.5" fill="#444" opacity=".25" style="animation:bl1777581906134 0.35s 6.6000000000000005s infinite"/><circle cx="592" cy="230" r="3.5" fill="#444" opacity=".25" style="animation:bl1777581906134 0.35s 6.680000000000001s infinite"/><circle cx="8" cy="290" r="3.5" fill="#444" opacity=".25" style="animation:bl1777581906134 0.35s 6.760000000000001s infinite"/><circle cx="592" cy="290" r="3.5" fill="#444" opacity=".25" style="animation:bl1777581906134 0.35s 6.6000000000000005s infinite"/><circle cx="8" cy="350" r="3.5" fill="#444" opacity=".25" style="animation:bl1777581906134 0.35s 6.680000000000001s infinite"/><circle cx="592" cy="350" r="3.5" fill="#444" opacity=".25" style="animation:bl1777581906134 0.35s 6.760000000000001s infinite"/><circle cx="8" cy="410" r="3.5" fill="#444" opacity=".25" style="animation:bl1777581906134 0.35s 6.6000000000000005s infinite"/><circle cx="592" cy="410" r="3.5" fill="#444" opacity=".25" style="animation:bl1777581906134 0.35s 6.680000000000001s infinite"/><circle cx="8" cy="470" r="3.5" fill="#444" opacity=".25" style="animation:bl1777581906134 0.35s 6.760000000000001s infinite"/><circle cx="592" cy="470" r="3.5" fill="#444" opacity=".25" style="animation:bl1777581906134 0.35s 6.6000000000000005s infinite"/><circle cx="8" cy="530" r="3.5" fill="#444" opacity=".25" style="animation:bl1777581906134 0.35s 6.680000000000001s infinite"/><circle cx="592" cy="530" r="3.5" fill="#444" opacity=".25" style="animation:bl1777581906134 0.35s 6.760000000000001s infinite"/><circle cx="8" cy="590" r="3.5" fill="#444" opacity=".25" style="animation:bl1777581906134 0.35s 6.6000000000000005s infinite"/><circle cx="592" cy="590" r="3.5" fill="#444" opacity=".25" style="animation:bl1777581906134 0.35s 6.680000000000001s infinite"/><circle cx="8" cy="650" r="3.5" fill="#444" opacity=".25" style="animation:bl1777581906134 0.35s 6.760000000000001s infinite"/><circle cx="592" cy="650" r="3.5" fill="#444" opacity=".25" style="animation:bl1777581906134 0.35s 6.6000000000000005s infinite"/>

<rect x="14" y="14" width="572" height="86" rx="14" fill="#13122d" opacity="0.85"/>
<text x="300" y="40" text-anchor="middle" font-family="'Segoe UI','Helvetica Neue',sans-serif" font-size="22" font-weight="800" fill="url(#hdr1777581906134)" filter="url(#glow1777581906134)">DEV STACK SLOT MACHINE</text>
<text x="300" y="58" text-anchor="middle" font-family="'Segoe UI',sans-serif" font-size="10" fill="#8b8baf" letter-spacing="3">SPIN · LEARN · DISCOVER MY PROJECTS</text>
<g font-family="'Segoe UI',sans-serif">
  <text x="32" y="73" font-size="9" fill="#8b8bac" font-weight="700" letter-spacing="1.2">COMMUNITY SPINS</text>
  <text x="32" y="84" font-size="7" fill="#5d5d80" font-style="italic" letter-spacing="0.6">giri totali</text>
  <text x="32" y="100" font-size="15" font-weight="800" fill="#ffd700">38</text>
  <text x="568" y="73" text-anchor="end" font-size="9" fill="#8b8bac" font-weight="700" letter-spacing="1.2">WINS</text>
  <text x="568" y="84" text-anchor="end" font-size="7" fill="#5d5d80" font-style="italic" letter-spacing="0.6">vincite</text>
  <text x="568" y="100" text-anchor="end" font-size="15" font-weight="800" fill="#4ade80">19</text>
</g>
<rect x="74" y="106" width="84" height="252" rx="11" fill="url(#reelbg1777581906134)"/><rect x="166" y="106" width="84" height="252" rx="11" fill="url(#reelbg1777581906134)"/><rect x="258" y="106" width="84" height="252" rx="11" fill="url(#reelbg1777581906134)"/><rect x="350" y="106" width="84" height="252" rx="11" fill="url(#reelbg1777581906134)"/><rect x="442" y="106" width="84" height="252" rx="11" fill="url(#reelbg1777581906134)"/>
<g clip-path="url(#cp1777581906134c0)"><g style="animation:rs1777581906134c0 3s cubic-bezier(.1,.7,.3,1) forwards"><use href="#sym_1777581906134_glsl" x="74" y="106" width="84" height="84"/><use href="#sym_1777581906134_qt" x="74" y="190" width="84" height="84"/><use href="#sym_1777581906134_react" x="74" y="274" width="84" height="84"/><use href="#sym_1777581906134_javascript" x="74" y="358" width="84" height="84"/><use href="#sym_1777581906134_qt" x="74" y="442" width="84" height="84"/><use href="#sym_1777581906134_typescript" x="74" y="526" width="84" height="84"/><use href="#sym_1777581906134_qt" x="74" y="610" width="84" height="84"/><use href="#sym_1777581906134_qt" x="74" y="694" width="84" height="84"/><use href="#sym_1777581906134_qt" x="74" y="778" width="84" height="84"/><use href="#sym_1777581906134_wild" x="74" y="862" width="84" height="84"/><use href="#sym_1777581906134_javascript" x="74" y="946" width="84" height="84"/><use href="#sym_1777581906134_javascript" x="74" y="1030" width="84" height="84"/><use href="#sym_1777581906134_cpp" x="74" y="1114" width="84" height="84"/><use href="#sym_1777581906134_glsl" x="74" y="1198" width="84" height="84"/><use href="#sym_1777581906134_typescript" x="74" y="1282" width="84" height="84"/><use href="#sym_1777581906134_qt" x="74" y="1366" width="84" height="84"/><use href="#sym_1777581906134_glsl" x="74" y="1450" width="84" height="84"/><use href="#sym_1777581906134_typescript" x="74" y="1534" width="84" height="84"/><use href="#sym_1777581906134_python" x="74" y="1618" width="84" height="84"/><use href="#sym_1777581906134_react" x="74" y="1702" width="84" height="84"/><use href="#sym_1777581906134_react" x="74" y="1786" width="84" height="84"/></g></g><g clip-path="url(#cp1777581906134c1)"><g style="animation:rs1777581906134c1 3.8s cubic-bezier(.1,.7,.3,1) forwards"><use href="#sym_1777581906134_glsl" x="166" y="106" width="84" height="84"/><use href="#sym_1777581906134_wild" x="166" y="190" width="84" height="84"/><use href="#sym_1777581906134_react" x="166" y="274" width="84" height="84"/><use href="#sym_1777581906134_python" x="166" y="358" width="84" height="84"/><use href="#sym_1777581906134_python" x="166" y="442" width="84" height="84"/><use href="#sym_1777581906134_cpp" x="166" y="526" width="84" height="84"/><use href="#sym_1777581906134_glsl" x="166" y="610" width="84" height="84"/><use href="#sym_1777581906134_wild" x="166" y="694" width="84" height="84"/><use href="#sym_1777581906134_glsl" x="166" y="778" width="84" height="84"/><use href="#sym_1777581906134_javascript" x="166" y="862" width="84" height="84"/><use href="#sym_1777581906134_qt" x="166" y="946" width="84" height="84"/><use href="#sym_1777581906134_javascript" x="166" y="1030" width="84" height="84"/><use href="#sym_1777581906134_qt" x="166" y="1114" width="84" height="84"/><use href="#sym_1777581906134_glsl" x="166" y="1198" width="84" height="84"/><use href="#sym_1777581906134_qt" x="166" y="1282" width="84" height="84"/><use href="#sym_1777581906134_qt" x="166" y="1366" width="84" height="84"/><use href="#sym_1777581906134_glsl" x="166" y="1450" width="84" height="84"/><use href="#sym_1777581906134_typescript" x="166" y="1534" width="84" height="84"/><use href="#sym_1777581906134_qt" x="166" y="1618" width="84" height="84"/><use href="#sym_1777581906134_react" x="166" y="1702" width="84" height="84"/><use href="#sym_1777581906134_javascript" x="166" y="1786" width="84" height="84"/></g></g><g clip-path="url(#cp1777581906134c2)"><g style="animation:rs1777581906134c2 4.6s cubic-bezier(.1,.7,.3,1) forwards"><use href="#sym_1777581906134_typescript" x="258" y="106" width="84" height="84"/><use href="#sym_1777581906134_cpp" x="258" y="190" width="84" height="84"/><use href="#sym_1777581906134_react" x="258" y="274" width="84" height="84"/><use href="#sym_1777581906134_wild" x="258" y="358" width="84" height="84"/><use href="#sym_1777581906134_python" x="258" y="442" width="84" height="84"/><use href="#sym_1777581906134_python" x="258" y="526" width="84" height="84"/><use href="#sym_1777581906134_javascript" x="258" y="610" width="84" height="84"/><use href="#sym_1777581906134_cpp" x="258" y="694" width="84" height="84"/><use href="#sym_1777581906134_javascript" x="258" y="778" width="84" height="84"/><use href="#sym_1777581906134_qt" x="258" y="862" width="84" height="84"/><use href="#sym_1777581906134_javascript" x="258" y="946" width="84" height="84"/><use href="#sym_1777581906134_javascript" x="258" y="1030" width="84" height="84"/><use href="#sym_1777581906134_javascript" x="258" y="1114" width="84" height="84"/><use href="#sym_1777581906134_typescript" x="258" y="1198" width="84" height="84"/><use href="#sym_1777581906134_cpp" x="258" y="1282" width="84" height="84"/><use href="#sym_1777581906134_react" x="258" y="1366" width="84" height="84"/><use href="#sym_1777581906134_wild" x="258" y="1450" width="84" height="84"/><use href="#sym_1777581906134_glsl" x="258" y="1534" width="84" height="84"/><use href="#sym_1777581906134_react" x="258" y="1618" width="84" height="84"/><use href="#sym_1777581906134_glsl" x="258" y="1702" width="84" height="84"/><use href="#sym_1777581906134_qt" x="258" y="1786" width="84" height="84"/></g></g><g clip-path="url(#cp1777581906134c3)"><g style="animation:rs1777581906134c3 5.4s cubic-bezier(.1,.7,.3,1) forwards"><use href="#sym_1777581906134_wild" x="350" y="106" width="84" height="84"/><use href="#sym_1777581906134_python" x="350" y="190" width="84" height="84"/><use href="#sym_1777581906134_react" x="350" y="274" width="84" height="84"/><use href="#sym_1777581906134_python" x="350" y="358" width="84" height="84"/><use href="#sym_1777581906134_wild" x="350" y="442" width="84" height="84"/><use href="#sym_1777581906134_react" x="350" y="526" width="84" height="84"/><use href="#sym_1777581906134_glsl" x="350" y="610" width="84" height="84"/><use href="#sym_1777581906134_javascript" x="350" y="694" width="84" height="84"/><use href="#sym_1777581906134_typescript" x="350" y="778" width="84" height="84"/><use href="#sym_1777581906134_wild" x="350" y="862" width="84" height="84"/><use href="#sym_1777581906134_react" x="350" y="946" width="84" height="84"/><use href="#sym_1777581906134_cpp" x="350" y="1030" width="84" height="84"/><use href="#sym_1777581906134_qt" x="350" y="1114" width="84" height="84"/><use href="#sym_1777581906134_react" x="350" y="1198" width="84" height="84"/><use href="#sym_1777581906134_qt" x="350" y="1282" width="84" height="84"/><use href="#sym_1777581906134_python" x="350" y="1366" width="84" height="84"/><use href="#sym_1777581906134_qt" x="350" y="1450" width="84" height="84"/><use href="#sym_1777581906134_react" x="350" y="1534" width="84" height="84"/><use href="#sym_1777581906134_cpp" x="350" y="1618" width="84" height="84"/><use href="#sym_1777581906134_c" x="350" y="1702" width="84" height="84"/><use href="#sym_1777581906134_python" x="350" y="1786" width="84" height="84"/></g></g><g clip-path="url(#cp1777581906134c4)"><g style="animation:rs1777581906134c4 6.2s cubic-bezier(.1,.7,.3,1) forwards"><use href="#sym_1777581906134_javascript" x="442" y="106" width="84" height="84"/><use href="#sym_1777581906134_javascript" x="442" y="190" width="84" height="84"/><use href="#sym_1777581906134_cpp" x="442" y="274" width="84" height="84"/><use href="#sym_1777581906134_javascript" x="442" y="358" width="84" height="84"/><use href="#sym_1777581906134_qt" x="442" y="442" width="84" height="84"/><use href="#sym_1777581906134_typescript" x="442" y="526" width="84" height="84"/><use href="#sym_1777581906134_typescript" x="442" y="610" width="84" height="84"/><use href="#sym_1777581906134_c" x="442" y="694" width="84" height="84"/><use href="#sym_1777581906134_qt" x="442" y="778" width="84" height="84"/><use href="#sym_1777581906134_glsl" x="442" y="862" width="84" height="84"/><use href="#sym_1777581906134_typescript" x="442" y="946" width="84" height="84"/><use href="#sym_1777581906134_cpp" x="442" y="1030" width="84" height="84"/><use href="#sym_1777581906134_qt" x="442" y="1114" width="84" height="84"/><use href="#sym_1777581906134_c" x="442" y="1198" width="84" height="84"/><use href="#sym_1777581906134_react" x="442" y="1282" width="84" height="84"/><use href="#sym_1777581906134_python" x="442" y="1366" width="84" height="84"/><use href="#sym_1777581906134_qt" x="442" y="1450" width="84" height="84"/><use href="#sym_1777581906134_qt" x="442" y="1534" width="84" height="84"/><use href="#sym_1777581906134_cpp" x="442" y="1618" width="84" height="84"/><use href="#sym_1777581906134_javascript" x="442" y="1702" width="84" height="84"/><use href="#sym_1777581906134_glsl" x="442" y="1786" width="84" height="84"/></g></g>

<rect x="74" y="106" width="84" height="252" rx="11" fill="none" stroke="#e94560" stroke-width="1.4" opacity="0.55"/><rect x="166" y="106" width="84" height="252" rx="11" fill="none" stroke="#e94560" stroke-width="1.4" opacity="0.55"/><rect x="258" y="106" width="84" height="252" rx="11" fill="none" stroke="#e94560" stroke-width="1.4" opacity="0.55"/><rect x="350" y="106" width="84" height="252" rx="11" fill="none" stroke="#e94560" stroke-width="1.4" opacity="0.55"/><rect x="442" y="106" width="84" height="252" rx="11" fill="none" stroke="#e94560" stroke-width="1.4" opacity="0.55"/>
<rect x="74" y="274" width="84" height="84" rx="11" fill="#ffd700" style="animation:wp1777581906134 .7s 6.6000000000000005s infinite;opacity:0"/><rect x="166" y="274" width="84" height="84" rx="11" fill="#ffd700" style="animation:wp1777581906134 .7s 6.6000000000000005s infinite;opacity:0"/><rect x="258" y="274" width="84" height="84" rx="11" fill="#ffd700" style="animation:wp1777581906134 .7s 6.6000000000000005s infinite;opacity:0"/><rect x="350" y="274" width="84" height="84" rx="11" fill="#ffd700" style="animation:wp1777581906134 .7s 6.6000000000000005s infinite;opacity:0"/>

<text x="136" y="106" font-size="24" font-family="sans-serif" style="animation:cf1777581906134 1.6s 6.800000000000001s forwards;opacity:0">🪙</text><text x="230" y="106" font-size="24" font-family="sans-serif" style="animation:cf1777581906134 1.6s 6.920000000000001s forwards;opacity:0">🪙</text><text x="109" y="106" font-size="24" font-family="sans-serif" style="animation:cf1777581906134 1.6s 7.040000000000001s forwards;opacity:0">🪙</text><text x="454" y="106" font-size="24" font-family="sans-serif" style="animation:cf1777581906134 1.6s 7.160000000000001s forwards;opacity:0">🪙</text><text x="363" y="106" font-size="24" font-family="sans-serif" style="animation:cf1777581906134 1.6s 7.280000000000001s forwards;opacity:0">🪙</text><text x="173" y="106" font-size="24" font-family="sans-serif" style="animation:cf1777581906134 1.6s 7.4s forwards;opacity:0">🪙</text><text x="371" y="106" font-size="24" font-family="sans-serif" style="animation:cf1777581906134 1.6s 7.5200000000000005s forwards;opacity:0">🪙</text><text x="314" y="106" font-size="24" font-family="sans-serif" style="animation:cf1777581906134 1.6s 7.640000000000001s forwards;opacity:0">🪙</text><text x="109" y="106" font-size="24" font-family="sans-serif" style="animation:cf1777581906134 1.6s 7.760000000000001s forwards;opacity:0">🪙</text>

<rect x="20" y="372" width="560" height="204" rx="12" fill="#0e0d24" stroke="#ffb84d" stroke-width="1.5" opacity="0.95" style="animation:fi1777581906134 .5s 6.6000000000000005s forwards;opacity:0"/><text x="300" y="396" text-anchor="middle" font-family="'Segoe UI','Helvetica Neue',sans-serif" font-size="17" font-weight="700" fill="#ffb84d" style="animation:fi1777581906134 .5s 6.7s forwards;opacity:0">💰 BIG WIN — React!</text><text x="32" y="418" font-family="'Segoe UI',sans-serif" font-size="8" fill="#8b8baf" font-weight="700" letter-spacing="1.2" style="animation:fi1777581906134 .5s 6.78s forwards;opacity:0">EN</text><text x="300" y="418" text-anchor="middle" font-family="'Segoe UI',sans-serif" font-size="12" fill="#e8e8f4" style="animation:fi1777581906134 .5s 6.800000000000001s forwards;opacity:0">The Virtual DOM isn&apos;t &quot;inherently fast&quot;: it&apos;s a smart trade-off that avoids needless</text><text x="300" y="433" text-anchor="middle" font-family="'Segoe UI',sans-serif" font-size="12" fill="#e8e8f4" style="animation:fi1777581906134 .5s 6.800000000000001s forwards;opacity:0">reflows by diffing virtual trees instead of the real DOM.</text><text x="32" y="452" font-family="'Segoe UI',sans-serif" font-size="8" fill="#8b8baf" font-weight="700" letter-spacing="1.2" style="animation:fi1777581906134 .5s 6.880000000000001s forwards;opacity:0">IT</text><text x="300" y="452" text-anchor="middle" font-family="'Segoe UI',sans-serif" font-size="11" fill="#b8b8d0" font-style="italic" style="animation:fi1777581906134 .5s 6.9s forwards;opacity:0">Il Virtual DOM non è &quot;veloce di per sé&quot;: è un trade-off intelligente che evita reflow</text><text x="300" y="466" text-anchor="middle" font-family="'Segoe UI',sans-serif" font-size="11" fill="#b8b8d0" font-style="italic" style="animation:fi1777581906134 .5s 6.9s forwards;opacity:0">inutili confrontando alberi virtuali invece del DOM reale.</text>
<rect x="14" y="596" width="572" height="96" rx="14" fill="#13122d" opacity="0.85"/><text x="28" y="612" font-family="'Segoe UI',sans-serif" font-size="10" font-weight="800" fill="#8b8baf" letter-spacing="2">PAYTABLE · SKILL LEVEL</text><text x="28" y="624" font-family="'Segoe UI',sans-serif" font-size="8" font-style="italic" fill="#5d5d80" letter-spacing="0.6">tabella valori · livello di competenza dell'owner</text><use href="#sym_1777581906134_cpp" x="31.75" y="628" width="36" height="36"/><text x="49.75" y="675" text-anchor="middle" font-family="'Segoe UI',sans-serif" font-size="9" font-weight="700" fill="#d4d4e8">C++</text><circle cx="39.35" cy="684" r="2.1" fill="#9FD3F0" stroke="#9FD3F0" stroke-width="0.6"/><circle cx="44.55" cy="684" r="2.1" fill="#9FD3F0" stroke="#9FD3F0" stroke-width="0.6"/><circle cx="49.75" cy="684" r="2.1" fill="#9FD3F0" stroke="#9FD3F0" stroke-width="0.6"/><circle cx="54.95" cy="684" r="2.1" fill="#9FD3F0" stroke="#9FD3F0" stroke-width="0.6"/><circle cx="60.15" cy="684" r="2.1" fill="#2a2754" stroke="#3a3666" stroke-width="0.6"/><use href="#sym_1777581906134_c" x="103.25" y="628" width="36" height="36"/><text x="121.25" y="675" text-anchor="middle" font-family="'Segoe UI',sans-serif" font-size="9" font-weight="700" fill="#d4d4e8">C</text><circle cx="110.85" cy="684" r="2.1" fill="#A8B9CC" stroke="#A8B9CC" stroke-width="0.6"/><circle cx="116.05" cy="684" r="2.1" fill="#A8B9CC" stroke="#A8B9CC" stroke-width="0.6"/><circle cx="121.25" cy="684" r="2.1" fill="#A8B9CC" stroke="#A8B9CC" stroke-width="0.6"/><circle cx="126.45" cy="684" r="2.1" fill="#2a2754" stroke="#3a3666" stroke-width="0.6"/><circle cx="131.65" cy="684" r="2.1" fill="#2a2754" stroke="#3a3666" stroke-width="0.6"/><use href="#sym_1777581906134_glsl" x="174.75" y="628" width="36" height="36"/><text x="192.75" y="675" text-anchor="middle" font-family="'Segoe UI',sans-serif" font-size="9" font-weight="700" fill="#d4d4e8">GLSL</text><circle cx="182.35" cy="684" r="2.1" fill="#F5B642" stroke="#F5B642" stroke-width="0.6"/><circle cx="187.55" cy="684" r="2.1" fill="#F5B642" stroke="#F5B642" stroke-width="0.6"/><circle cx="192.75" cy="684" r="2.1" fill="#F5B642" stroke="#F5B642" stroke-width="0.6"/><circle cx="197.95" cy="684" r="2.1" fill="#2a2754" stroke="#3a3666" stroke-width="0.6"/><circle cx="203.15" cy="684" r="2.1" fill="#2a2754" stroke="#3a3666" stroke-width="0.6"/><use href="#sym_1777581906134_react" x="246.25" y="628" width="36" height="36"/><text x="264.25" y="675" text-anchor="middle" font-family="'Segoe UI',sans-serif" font-size="9" font-weight="700" fill="#d4d4e8">React</text><circle cx="253.85" cy="684" r="2.1" fill="#61DAFB" stroke="#61DAFB" stroke-width="0.6"/><circle cx="259.05" cy="684" r="2.1" fill="#61DAFB" stroke="#61DAFB" stroke-width="0.6"/><circle cx="264.25" cy="684" r="2.1" fill="#61DAFB" stroke="#61DAFB" stroke-width="0.6"/><circle cx="269.45" cy="684" r="2.1" fill="#61DAFB" stroke="#61DAFB" stroke-width="0.6"/><circle cx="274.65" cy="684" r="2.1" fill="#2a2754" stroke="#3a3666" stroke-width="0.6"/><use href="#sym_1777581906134_javascript" x="317.75" y="628" width="36" height="36"/><text x="335.75" y="675" text-anchor="middle" font-family="'Segoe UI',sans-serif" font-size="9" font-weight="700" fill="#d4d4e8">JavaScript</text><circle cx="325.35" cy="684" r="2.1" fill="#000000" stroke="#000000" stroke-width="0.6"/><circle cx="330.55" cy="684" r="2.1" fill="#000000" stroke="#000000" stroke-width="0.6"/><circle cx="335.75" cy="684" r="2.1" fill="#000000" stroke="#000000" stroke-width="0.6"/><circle cx="340.95" cy="684" r="2.1" fill="#000000" stroke="#000000" stroke-width="0.6"/><circle cx="346.15" cy="684" r="2.1" fill="#000000" stroke="#000000" stroke-width="0.6"/><use href="#sym_1777581906134_python" x="389.25" y="628" width="36" height="36"/><text x="407.25" y="675" text-anchor="middle" font-family="'Segoe UI',sans-serif" font-size="9" font-weight="700" fill="#d4d4e8">Python</text><circle cx="396.85" cy="684" r="2.1" fill="#FFD43B" stroke="#FFD43B" stroke-width="0.6"/><circle cx="402.05" cy="684" r="2.1" fill="#FFD43B" stroke="#FFD43B" stroke-width="0.6"/><circle cx="407.25" cy="684" r="2.1" fill="#FFD43B" stroke="#FFD43B" stroke-width="0.6"/><circle cx="412.45" cy="684" r="2.1" fill="#FFD43B" stroke="#FFD43B" stroke-width="0.6"/><circle cx="417.65" cy="684" r="2.1" fill="#2a2754" stroke="#3a3666" stroke-width="0.6"/><use href="#sym_1777581906134_typescript" x="460.75" y="628" width="36" height="36"/><text x="478.75" y="675" text-anchor="middle" font-family="'Segoe UI',sans-serif" font-size="9" font-weight="700" fill="#d4d4e8">TypeScript</text><circle cx="468.35" cy="684" r="2.1" fill="#235A97" stroke="#235A97" stroke-width="0.6"/><circle cx="473.55" cy="684" r="2.1" fill="#235A97" stroke="#235A97" stroke-width="0.6"/><circle cx="478.75" cy="684" r="2.1" fill="#235A97" stroke="#235A97" stroke-width="0.6"/><circle cx="483.95" cy="684" r="2.1" fill="#235A97" stroke="#235A97" stroke-width="0.6"/><circle cx="489.15" cy="684" r="2.1" fill="#2a2754" stroke="#3a3666" stroke-width="0.6"/><use href="#sym_1777581906134_qt" x="532.25" y="628" width="36" height="36"/><text x="550.25" y="675" text-anchor="middle" font-family="'Segoe UI',sans-serif" font-size="9" font-weight="700" fill="#d4d4e8">Qt</text><circle cx="539.85" cy="684" r="2.1" fill="#41CD52" stroke="#41CD52" stroke-width="0.6"/><circle cx="545.05" cy="684" r="2.1" fill="#41CD52" stroke="#41CD52" stroke-width="0.6"/><circle cx="550.25" cy="684" r="2.1" fill="#41CD52" stroke="#41CD52" stroke-width="0.6"/><circle cx="555.45" cy="684" r="2.1" fill="#2a2754" stroke="#3a3666" stroke-width="0.6"/><circle cx="560.65" cy="684" r="2.1" fill="#2a2754" stroke="#3a3666" stroke-width="0.6"/>

<text x="300" y="694" text-anchor="middle" font-family="'Segoe UI',sans-serif" font-size="8" fill="#5d5d80">&lt;/&gt; Wild  ·  5 paylines  ·  5-in-a-row = JACKPOT (all my repos)  ·  github.com/simrim96</text>
</svg>